<?xml version="1.0" encoding="UTF-8" standalone="no"?>
<!-- Created with Inkscape (http://www.inkscape.org/) -->

<svg
   width="210mm"
   height="297mm"
   viewBox="0 0 210 297"
   version="1.1"
   id="svg1"
   inkscape:version="1.3.2 (091e20e, 2023-11-25, custom)"
   sodipodi:docname="zīmējums1.svg"
   xmlns:inkscape="http://www.inkscape.org/namespaces/inkscape"
   xmlns:sodipodi="http://sodipodi.sourceforge.net/DTD/sodipodi-0.dtd"
   xmlns:xlink="http://www.w3.org/1999/xlink"
   xmlns="http://www.w3.org/2000/svg"
   xmlns:svg="http://www.w3.org/2000/svg">
  <sodipodi:namedview
     id="namedview1"
     pagecolor="#ffffff"
     bordercolor="#000000"
     borderopacity="0.25"
     inkscape:showpageshadow="2"
     inkscape:pageopacity="0.0"
     inkscape:pagecheckerboard="0"
     inkscape:deskcolor="#d1d1d1"
     inkscape:document-units="mm"
     inkscape:zoom="0.73139029"
     inkscape:cx="477.17341"
     inkscape:cy="560.57621"
     inkscape:window-width="1118"
     inkscape:window-height="1008"
     inkscape:window-x="-7"
     inkscape:window-y="0"
     inkscape:window-maximized="0"
     inkscape:current-layer="layer1" />
  <defs
     id="defs1">
    <linearGradient
       id="linearGradient172"
       inkscape:collect="always">
      <stop
         style="stop-color:#e00101;stop-opacity:1;"
         offset="0.09696969"
         id="stop173" />
      <stop
         style="stop-color:#0be001;stop-opacity:1;"
         offset="0.5090909"
         id="stop174" />
      <stop
         style="stop-color:#0b01e0;stop-opacity:1;"
         offset="0.87272727"
         id="stop175" />
    </linearGradient>
    <linearGradient
       id="linearGradient170"
       inkscape:collect="always">
      <stop
         style="stop-color:#fe1818;stop-opacity:1;"
         offset="0"
         id="stop170" />
      <stop
         style="stop-color:#9cfe18;stop-opacity:1;"
         offset="0.5515151"
         id="stop171" />
      <stop
         style="stop-color:#5818fe;stop-opacity:1;"
         offset="1"
         id="stop172" />
    </linearGradient>
    <rect
       x="273.45181"
       y="790.27573"
       width="270.71729"
       height="164.07109"
       id="rect16" />
    <linearGradient
       id="swatch5"
       inkscape:swatch="solid">
      <stop
         style="stop-color:#fe1818;stop-opacity:1;"
         offset="0"
         id="stop6" />
    </linearGradient>
    <linearGradient
       inkscape:collect="always"
       xlink:href="#linearGradient170"
       id="linearGradient171"
       x1="70.180267"
       y1="157.72473"
       x2="163.15103"
       y2="122.99635"
       gradientUnits="userSpaceOnUse" />
    <linearGradient
       inkscape:collect="always"
       xlink:href="#linearGradient172"
       id="linearGradient174"
       x1="74.159561"
       y1="214.88185"
       x2="167.85384"
       y2="272.03897"
       gradientUnits="userSpaceOnUse" />
  </defs>
  <g
     inkscape:label="Slānis 1"
     inkscape:groupmode="layer"
     id="layer1">
    <path
       id="rect1"
       style="fill:#fee818;fill-opacity:0.517699;stroke:#505050;stroke-width:2;stroke-dasharray:23.99999752,2;stroke-dashoffset:0"
       d="m 121.44323,116.57583 a 55.70867,61.111188 0 0 0 -22.888522,5.533 c 0.374521,0.95473 0.851906,1.85352 1.376143,2.73575 0.867099,1.45736 1.562109,3.00789 2.348699,4.50876 0.70746,1.37035 1.41471,2.73058 2.26807,4.0163 0.9162,1.31554 2.00969,2.48133 3.2427,3.50108 1.50801,1.21679 3.34825,1.89675 5.15679,2.52956 1.72602,0.65697 3.52413,1.03868 5.34748,1.29191 1.6112,0.19798 3.23389,0.26581 4.855,0.32091 1.35525,0.108 2.67165,-0.0936 3.97598,-0.43977 1.56011,-0.41006 2.95607,-1.17507 4.26796,-2.09341 1.71839,-1.22906 2.74439,-3.11924 3.70417,-4.95112 1.13087,-2.13783 1.92309,-4.42553 2.78639,-6.67763 0.90819,-2.16453 1.74841,-4.35759 2.44688,-6.59856 a 55.70867,61.111188 0 0 0 -18.88774,-3.67678 z m 22.21002,5.16248 c -0.69656,2.17198 -1.50502,4.30608 -2.39159,6.40839 -0.91483,2.38504 -1.75962,4.8049 -2.96209,7.06675 -1.24029,2.34835 -2.62412,4.68859 -4.84725,6.24148 -1.66864,1.14449 -3.43969,2.10821 -5.41311,2.61896 -1.64355,0.42384 -3.30899,0.67711 -5.01261,0.55449 -1.74774,-0.0597 -3.49725,-0.13536 -5.23379,-0.35347 -2.05982,-0.29075 -4.09327,-0.72459 -6.04511,-1.46192 -2.21507,-0.78103 -4.44025,-1.65504 -6.27403,-3.16415 -1.49463,-1.25422 -2.8366,-2.66956 -3.94292,-4.28294 -0.91823,-1.3911 -1.697093,-2.85298 -2.456694,-4.33566 -0.754411,-1.44427 -1.427049,-2.9331 -2.253609,-4.33823 -0.542593,-0.91371 -1.04088,-1.84578 -1.456759,-2.81998 A 55.70867,61.111188 0 0 0 74.55824,144.93121 c 0.754806,0.0523 1.507399,0.13754 2.25671,0.2713 0.608149,0.10857 1.204357,0.27479 1.806608,0.41237 2.24093,0.68985 4.471443,1.63929 6.322094,3.11248 1.203264,0.9578 1.499957,1.40969 2.490804,2.56056 2.053795,2.53519 3.260787,5.52179 4.011642,8.66356 0.188336,1.12195 0.209308,2.24503 0.144177,3.3662 H 124.2751 c 0.0332,-0.5359 0.0717,-1.07144 0.12299,-1.6061 0.22964,-1.95294 0.621,-3.87796 1.58595,-5.61827 0.19693,-0.32498 0.37754,-0.66001 0.59066,-0.97461 1.22678,-1.81083 2.92548,-3.2381 4.53513,-4.69016 0.97848,-0.79643 1.53289,-1.27917 2.57917,-2.00091 1.80815,-1.24729 3.75704,-2.29951 5.70818,-3.29954 0.53017,-0.21446 1.04951,-0.45818 1.5906,-0.64337 2.35057,-0.80449 4.89853,-0.97787 7.35614,-1.10691 2.45289,-0.0679 4.90538,-0.11665 7.35872,-0.12816 v -13.72732 a 55.70867,61.111188 0 0 0 -12.04939,-7.78402 z m 12.04939,25.12766 c -2.42002,0.0116 -4.83953,0.0612 -7.25899,0.12816 -2.16902,0.12025 -4.43425,0.24932 -6.50554,0.98082 -0.39516,0.13955 -0.77024,0.33013 -1.15549,0.49506 -1.75267,0.92648 -3.5149,1.87726 -5.148,3.00757 -0.81215,0.56209 -1.47407,1.12957 -2.23811,1.75441 -1.61116,1.40628 -3.22534,2.84121 -4.30258,4.70927 -0.6871,1.30293 -0.94046,2.73759 -1.10226,4.18373 -0.037,0.39716 -0.0678,0.7948 -0.094,1.19269 h 27.80502 z m -82.974779,1.61541 a 55.70867,61.111188 0 0 0 -5.301486,14.8363 h 20.546033 c 0.05902,-0.84464 0.06251,-1.6917 -0.04754,-2.53938 -0.594477,-2.58853 -1.579533,-5.05166 -3.248381,-7.14943 -0.666446,-0.79974 -0.99262,-1.2687 -1.79834,-1.93167 -1.473198,-1.21221 -3.28325,-1.97774 -5.079276,-2.55953 -0.484109,-0.11613 -0.962556,-0.2578 -1.452108,-0.3483 -1.198201,-0.22147 -2.40707,-0.29645 -3.6189,-0.30799 z" />
    <path
       d="M 75.557318,73.059078 H 72.131373 V 82.85262 H 70.856304 V 73.059078 H 67.43036 V 71.74632 h 8.126958 z m 7.60534,9.793542 h -6.317392 v -11.1063 h 6.317392 v 1.312758 h -5.042323 v 3.043242 h 5.042323 v 1.312758 h -5.042323 v 4.124773 h 5.042323 z m 7.064395,-2.401769 q 0,1.141219 -0.81784,1.872191 -0.81141,0.730972 -2.221719,0.730972 -0.798522,0 -1.468261,-0.21631 -0.663291,-0.223769 -1.11407,-0.484829 v -1.573829 h 0.06439 q 0.573142,0.499745 1.275068,0.798107 0.701934,0.290893 1.345907,0.290893 0.798532,0 1.249311,-0.298351 0.450789,-0.298362 0.450789,-0.939824 0,-0.492287 -0.244716,-0.745889 -0.244708,-0.253602 -0.940203,-0.432621 -0.257586,-0.06716 -0.676169,-0.156634 -0.412144,-0.08954 -0.753448,-0.193936 -0.946652,-0.290893 -1.345908,-0.850314 -0.392827,-0.56687 -0.392827,-1.387352 0,-0.514661 0.180315,-0.969657 0.186746,-0.454996 0.560255,-0.813023 0.360621,-0.35057 0.914446,-0.551953 0.560254,-0.208853 1.249311,-0.208853 0.643973,0 1.300824,0.186467 0.663291,0.179019 1.101201,0.440079 v 1.499236 h -0.06439 q -0.463657,-0.395319 -1.126957,-0.663837 -0.663291,-0.275977 -1.300824,-0.275977 -0.6633,0 -1.120519,0.298351 -0.457218,0.290893 -0.457218,0.87269 0,0.514672 0.276903,0.775732 0.270473,0.26106 0.875811,0.425152 0.334865,0.08954 0.747009,0.17902 0.418584,0.08954 0.695496,0.164092 0.843606,0.223768 1.300824,0.768263 0.457219,0.551964 0.457219,1.461944 z m 5.46735,2.327187 q -0.341313,0.104393 -0.747018,0.17155 -0.399257,0.06716 -0.714804,0.06716 -1.101201,0 -1.674333,-0.686222 -0.573143,-0.686223 -0.573143,-2.200375 v -4.430593 h -0.817849 v -1.178499 h 0.817849 v -2.394311 h 1.210676 v 2.394311 h 2.498622 v 1.178499 h -2.498622 v 3.796589 q 0,0.656379 0.02574,1.029323 0.02574,0.365486 0.180315,0.686223 0.141671,0.298351 0.386378,0.440068 0.251156,0.134259 0.759897,0.134259 0.29622,0 0.618207,-0.09697 0.321996,-0.104393 0.463667,-0.171561 h 0.06439 z m 2.762647,-9.651825 h -1.365225 v -1.454486 h 1.365225 z m -0.07731,9.726407 h -1.210667 v -8.331587 h 1.210667 z m 12.892367,0 h -1.21067 v -4.743861 q 0,-0.537036 -0.0451,-1.036781 -0.0387,-0.499756 -0.17387,-0.798107 -0.14812,-0.320737 -0.42503,-0.484829 -0.2769,-0.164092 -0.79852,-0.164092 -0.50874,0 -1.01749,0.298351 -0.50874,0.290893 -1.01748,0.745889 0.0193,0.171561 0.0322,0.402788 0.0129,0.223758 0.0129,0.447526 v 5.333116 h -1.21068 v -4.743861 q 0,-0.551953 -0.0451,-1.04425 -0.0387,-0.499745 -0.17388,-0.798097 -0.14811,-0.320736 -0.42502,-0.47737 -0.27691,-0.164092 -0.79853,-0.164092 -0.49585,0 -0.99816,0.283435 -0.49586,0.283434 -0.99172,0.723513 v 6.220722 h -1.21067 v -8.331587 h 1.21067 v 0.924898 q 0.5667,-0.544495 1.12696,-0.850315 0.5667,-0.30581 1.20423,-0.30581 0.73413,0 1.24287,0.358028 0.51518,0.358028 0.76633,0.992032 0.73413,-0.716055 1.33947,-1.029334 0.60533,-0.320726 1.29438,-0.320726 1.18491,0 1.74518,0.835388 0.56669,0.82794 0.56669,2.319728 z m 8.46183,-4.162064 q 0,2.036282 -0.90157,3.214781 -0.90156,1.17851 -2.41491,1.17851 -1.52621,0 -2.42778,-1.17851 -0.89512,-1.178499 -0.89512,-3.214781 0,-2.036283 0.89512,-3.214792 0.90157,-1.185958 2.42778,-1.185958 1.51335,0 2.41491,1.185958 0.90157,1.178509 0.90157,3.214792 z m -1.24932,0 q 0,-1.618578 -0.54737,-2.401769 -0.54738,-0.790638 -1.51979,-0.790638 -0.98527,0 -1.53265,0.790638 -0.54094,0.783191 -0.54094,2.401769 0,1.56637 0.54738,2.379394 0.54738,0.805554 1.52621,0.805554 0.96597,0 1.51335,-0.798096 0.55381,-0.805565 0.55381,-2.386852 z m 9.138,4.162064 h -1.21067 v -4.743861 q 0,-0.574338 -0.058,-1.074083 -0.058,-0.507204 -0.21251,-0.790638 -0.16099,-0.313279 -0.46366,-0.462454 -0.30267,-0.156634 -0.78565,-0.156634 -0.49585,0 -1.0368,0.283435 -0.54094,0.283434 -1.0368,0.723513 v 6.220722 h -1.21067 v -8.331587 h 1.21067 v 0.924898 q 0.5667,-0.544495 1.17204,-0.850315 0.60533,-0.30581 1.24287,-0.30581 1.16559,0 1.77736,0.813013 0.61178,0.813024 0.61178,2.342103 z m 8.42319,-8.331587 -4.19871,11.404662 h -1.29439 l 1.33946,-3.475852 -2.86568,-7.92881 h 1.31371 l 2.20883,6.175962 2.22815,-6.175962 z"
       id="text1"
       style="font-size:14.1939px;fill:#fe1818;stroke:#8d6c13;stroke-width:0.5"
       aria-label="TEstimony" />
    <path
       style="font-size:7.05556px;fill:#fe1818;stroke:#8d6c13;stroke-width:0.637611"
       d="m 95.775872,192.41357 h -1.074836 v -0.39499 q -0.463094,0.23632 -0.966207,0.36798 -0.503115,0.13167 -1.091987,0.13167 -1.143441,0 -1.818072,-0.5199 -0.668912,-0.51989 -0.668912,-1.44151 0,-0.47938 0.228688,-0.8541 0.234406,-0.37473 0.628892,-0.63806 0.38877,-0.25656 0.903319,-0.3916 0.520266,-0.13503 1.074835,-0.13503 0.503114,0 0.891884,0.0641 0.38877,0.0608 0.81756,0.19243 v -1.63394 h 1.074836 z m -1.074836,-0.92837 v -2.16397 q -0.434507,-0.11477 -0.77754,-0.15866 -0.343032,-0.0439 -0.748954,-0.0439 -0.903318,0 -1.406433,0.37136 -0.503113,0.37134 -0.503113,1.05328 0,0.6718 0.388769,1.0229 0.388771,0.34772 1.246352,0.34772 0.457375,0 0.926186,-0.11816 0.468811,-0.12154 0.874733,-0.31058 z m 6.626244,-3.71013 h -0.0572 q -0.17724,-0.0304 -0.46309,-0.0608 -0.28586,-0.0338 -0.50312,-0.0338 -0.691781,0 -1.006227,0.1823 -0.308729,0.17893 -0.308729,0.65155 v 0.12829 h 1.938136 v 0.53339 h -1.903833 v 3.2375 h -1.074836 v -3.2375 h -0.726087 v -0.53339 h 0.726087 v -0.12491 q 0,-0.67181 0.566002,-1.02966 0.566004,-0.36121 1.635117,-0.36121 0.36019,0 0.64605,0.0203 0.29158,0.0203 0.5317,0.0472 z m 2.66994,0.23631 h -1.21205 v -0.6583 h 1.21205 z m -0.0686,4.49334 q 0,0.66168 -0.57172,0.99927 -0.57172,0.33759 -1.53221,0.33759 -0.22869,0 -0.60603,-0.027 -0.37161,-0.0271 -0.62317,-0.0675 v -0.60428 h 0.0572 q 0.16008,0.0371 0.42879,0.0844 0.27443,0.0472 0.5317,0.0472 0.41164,0 0.6632,-0.0675 0.25155,-0.0675 0.37733,-0.20256 0.12578,-0.13503 0.16008,-0.32745 0.04,-0.18906 0.04,-0.46251 v -3.03832 h -1.33211 v -0.53339 h 2.40694 z m 4.09924,-4.49334 h -1.21204 v -0.6583 h 1.21204 z m -0.0685,4.49334 q 0,0.66168 -0.57172,0.99927 -0.57172,0.33759 -1.53221,0.33759 -0.22869,0 -0.60603,-0.027 -0.37162,-0.0271 -0.62317,-0.0675 v -0.60428 h 0.0572 q 0.16007,0.0371 0.42879,0.0844 0.27442,0.0472 0.5317,0.0472 0.41164,0 0.66319,-0.0675 0.25156,-0.0675 0.37734,-0.20256 0.12579,-0.13503 0.16014,-0.32745 0.04,-0.18906 0.04,-0.46251 v -3.03832 h -1.33221 v -0.53339 h 2.40695 z m 6.67199,-1.17819 q 0,0.51651 -0.72609,0.84735 -0.72037,0.33084 -1.97244,0.33084 -0.70893,0 -1.30352,-0.0979 -0.58888,-0.10128 -0.98909,-0.21943 v -0.71233 h 0.0573 q 0.50883,0.22619 1.13201,0.36123 0.62317,0.13166 1.19489,0.13166 0.70893,0 1.10914,-0.13504 0.40021,-0.13503 0.40021,-0.42536 0,-0.22282 -0.21727,-0.33759 -0.21724,-0.11478 -0.8347,-0.1958 -0.2287,-0.0304 -0.60032,-0.0709 -0.36589,-0.0405 -0.6689,-0.0878 -0.84043,-0.13166 -1.1949,-0.38486 -0.34875,-0.25656 -0.34875,-0.62791 0,-0.23295 0.16014,-0.43888 0.16579,-0.20593 0.49741,-0.36797 0.32016,-0.15867 0.81184,-0.24982 0.49739,-0.0946 1.10914,-0.0946 0.57172,0 1.15487,0.0844 0.58887,0.081 0.97764,0.19918 v 0.67855 h -0.0572 q -0.41164,-0.17892 -1.00051,-0.30045 -0.58888,-0.12491 -1.15487,-0.12491 -0.58888,0 -0.9948,0.13503 -0.40592,0.13167 -0.40592,0.39499 0,0.23293 0.24584,0.35109 0.24012,0.11816 0.77753,0.19243 0.29731,0.0405 0.6632,0.081 0.37161,0.0405 0.61746,0.0743 0.74895,0.10128 1.15487,0.34772 0.40594,0.24982 0.40594,0.66168 z m 3.52751,-3.31515 h -1.21205 v -0.6583 h 1.21205 z m -0.0685,4.49334 q 0,0.66168 -0.57172,0.99927 -0.57173,0.33759 -1.53222,0.33759 -0.22868,0 -0.60603,-0.027 -0.37161,-0.0271 -0.62316,-0.0675 v -0.60428 h 0.0572 q 0.16015,0.0371 0.42879,0.0844 0.27442,0.0472 0.53169,0.0472 0.41165,0 0.66321,-0.0675 0.25155,-0.0675 0.37733,-0.20256 0.12579,-0.13503 0.16014,-0.32745 0.04,-0.18906 0.04,-0.46251 v -3.03832 h -1.33212 v -0.53339 h 2.40695 z m 4.09923,-4.49334 h -1.21205 v -0.6583 h 1.21205 z m -0.0685,4.49334 q 0,0.66168 -0.57172,0.99927 -0.57172,0.33759 -1.5322,0.33759 -0.2287,0 -0.60603,-0.027 -0.37161,-0.0271 -0.62318,-0.0675 v -0.60428 h 0.0571 q 0.16014,0.0371 0.42878,0.0844 0.27444,0.0472 0.53171,0.0472 0.41165,0 0.6632,-0.0675 0.25155,-0.0675 0.37734,-0.20256 0.12579,-0.13503 0.16014,-0.32745 0.04,-0.18906 0.04,-0.46251 v -3.03832 h -1.33212 v -0.53339 h 2.40694 z m 4.09924,-4.49334 h -1.21204 v -0.6583 h 1.21204 z m -0.0685,4.49334 q 0,0.66168 -0.57173,0.99927 -0.57172,0.33759 -1.53221,0.33759 -0.22869,0 -0.60603,-0.027 -0.37161,-0.0271 -0.62318,-0.0675 v -0.60428 h 0.0572 q 0.16015,0.0371 0.42879,0.0844 0.27442,0.0472 0.53169,0.0472 0.41165,0 0.6632,-0.0675 0.25156,-0.0675 0.37734,-0.20256 0.12579,-0.13503 0.16014,-0.32745 0.04,-0.18906 0.04,-0.46251 v -3.03832 h -1.33248 v -0.53339 h 2.40695 z"
       id="text17"
       aria-label="dfjjsjjj" />
    <path
       id="text19"
       style="font-size:7.05556px;fill:url(#linearGradient171);fill-opacity:1;stroke:#8d6c13;stroke-width:0.5;stroke-dasharray:1, 0.5;stroke-dashoffset:0;stroke-opacity:1;stroke-linejoin:bevel"
       d="M 242.30046,-5.3603963 V 0 h 0.64802 V -1.2851929 L 243.36861,-1.6846517 244.91218,0 h 0.85421 l -1.91874,-2.0706746 1.788,-1.7776693 h -0.81648 l -1.87069,1.9259806 v -3.438033 z m -4.47828,0.1963704 v 0.6717936 h 0.73018 v -0.6717936 z m 10.06295,1.2092285 c -0.54433,0 -0.97709,0.1825922 -1.29863,0.5477702 -0.31925,0.3628818 -0.47904,0.8576598 -0.47904,1.4846639 0,0.6270042 0.15979,1.12178246 0.47904,1.48466392 0.32154,0.36288146 0.7543,0.54466959 1.29863,0.54466959 0.53973,0 0.97037,-0.18178813 1.29191,-0.54466959 0.32154,-0.36288146 0.48214,-0.85765972 0.48214,-1.48466392 0,-0.6270041 -0.1606,-1.1217821 -0.48214,-1.4846639 -0.32154,-0.365178 -0.75218,-0.5477702 -1.29191,-0.5477702 z m 19.93677,0 c -0.22738,0 -0.4423,0.046911 -0.64441,0.1410767 -0.19982,0.094166 -0.40043,0.2250801 -0.60255,0.3927409 v -0.4273641 h -0.64802 V 0 h 0.64802 v -2.8732096 c 0.17685,-0.1355066 0.35336,-0.2470708 0.5302,-0.3343466 0.17915,-0.087276 0.35749,-0.1307413 0.53434,-0.1307413 0.18603,0 0.32809,0.025436 0.42684,0.075964 0.0988,0.048231 0.17456,0.1213828 0.22738,0.2201416 0.0482,0.091869 0.0792,0.2150894 0.093,0.3689698 0.0161,0.1515831 0.0243,0.3121836 0.0243,0.4821411 V 0 h 0.6475 v -2.4634155 c 0,-0.068902 -0.002,-0.1378039 -0.007,-0.2067058 -0.005,-0.071199 -0.01,-0.1332108 -0.016,-0.1860351 0.18144,-0.1401 0.36219,-0.2545926 0.54363,-0.3441651 0.18145,-0.091869 0.36323,-0.137976 0.54467,-0.137976 0.18603,0 0.32861,0.025436 0.42737,0.075964 0.0988,0.050528 0.17454,0.1250001 0.22737,0.223759 0.0482,0.091869 0.0787,0.2145731 0.0925,0.3684529 0.0161,0.1538804 0.0243,0.3136765 0.0243,0.4790406 V 0 h 0.64803 v -2.497522 c 0,-0.4593434 -0.10124,-0.8168332 -0.30335,-1.0717692 -0.19982,-0.2572322 -0.51067,-0.3855062 -0.93327,-0.3855062 -0.24575,0 -0.47658,0.049035 -0.69247,0.1477946 -0.2159,0.096463 -0.45494,0.2549382 -0.71675,0.4754232 -0.0896,-0.195221 -0.22605,-0.3476107 -0.40979,-0.4578532 -0.18144,-0.1102425 -0.40326,-0.1653646 -0.66508,-0.1653646 z m 6.56652,0 c -0.5604,0 -1.01303,0.1847162 -1.35754,0.5544882 -0.34221,0.3697714 -0.51315,0.8693156 -0.51315,1.4986165 0,0.6361911 0.17915,1.1275242 0.53744,1.4743286 0.35829,0.34450773 0.85651,0.51676433 1.495,0.51676433 0.25034,0 0.48937,-0.03100618 0.71675,-0.09301758 0.22738,-0.0620114 0.44999,-0.13860816 0.66818,-0.23047689 v -0.70641683 h -0.0346 c -0.11254,0.1010556 -0.30202,0.20440954 -0.56844,0.3100586 -0.26412,0.10335227 -0.52675,0.15502929 -0.78858,0.15502929 -0.19752,0 -0.37931,-0.0275608 -0.54467,-0.0826823 -0.16307,-0.055121 -0.30432,-0.13780441 -0.42375,-0.24804687 -0.12402,-0.1125392 -0.22129,-0.25591426 -0.29249,-0.43046466 -0.0712,-0.1768472 -0.10697,-0.3835551 -0.10697,-0.6201172 h 2.83549 V -2.208134 c 0,-0.5581022 -0.14125,-0.988744 -0.42375,-1.2919108 -0.2802,-0.3031668 -0.67983,-0.4547526 -1.19889,-0.4547526 z m 4.54391,0 c -0.22738,0 -0.44918,0.046911 -0.66508,0.1410767 -0.21589,0.094166 -0.42472,0.2250801 -0.62683,0.3927409 v -0.4273641 h -0.64751 V 0 h 0.64751 v -2.8732096 c 0.17685,-0.1355066 0.36156,-0.2470708 0.55449,-0.3343466 0.19292,-0.087276 0.37815,-0.1307413 0.555,-0.1307413 0.17226,0 0.31218,0.024116 0.42013,0.072347 0.10795,0.045935 0.19063,0.1169615 0.24805,0.2134236 0.0551,0.087276 0.093,0.2091758 0.11368,0.3653524 0.0207,0.1538804 0.031,0.3192461 0.031,0.4960938 V 0 h 0.64751 v -2.497522 c 0,-0.470827 -0.10893,-0.8317619 -0.32712,-1.0821045 -0.21818,-0.250342 -0.53513,-0.3751709 -0.95084,-0.3751709 z m 4.03076,0 c -0.54432,0 -0.97709,0.1825922 -1.29863,0.5477702 -0.31924,0.3628818 -0.47904,0.8576598 -0.47904,1.4846639 0,0.6270042 0.1598,1.12178246 0.47904,1.48466392 0.32154,0.36288146 0.75431,0.54466959 1.29863,0.54466959 0.53973,0 0.97037,-0.18178813 1.29191,-0.54466959 0.32154,-0.36288146 0.48214,-0.85765972 0.48214,-1.48466392 0,-0.6270041 -0.1606,-1.1217821 -0.48214,-1.4846639 -0.32154,-0.365178 -0.75218,-0.5477702 -1.29191,-0.5477702 z m -23.63318,0.013436 c -0.23197,0 -0.46756,0.020671 -0.70642,0.062012 -0.23886,0.041341 -0.42145,0.079237 -0.54777,0.1136882 v 0.6583577 h 0.0346 c 0.22279,-0.084979 0.43851,-0.1496325 0.64751,-0.1932698 0.209,-0.045935 0.39848,-0.06873 0.56844,-0.06873 0.1401,0 0.27446,0.00901 0.40308,0.027389 0.12861,0.018374 0.23886,0.054145 0.33073,0.1069702 0.0965,0.055121 0.17013,0.1309142 0.22065,0.2273763 0.0528,0.096463 0.0791,0.2183627 0.0791,0.3653524 v 0.099735 c -0.37667,0.018374 -0.72939,0.045935 -1.05782,0.082682 -0.32843,0.036748 -0.60961,0.1069708 -0.84387,0.2103231 -0.23197,0.1033523 -0.41112,0.2454067 -0.53744,0.4268473 -0.12402,0.1791444 -0.18603,0.4147337 -0.18603,0.7064169 0,0.35599109 0.12057,0.64882751 0.36173,0.87849931 0.24116,0.2296718 0.53531,0.3446818 0.88212,0.3446818 0.18833,0 0.35237,-0.01854626 0.49247,-0.05529378 0.1401,-0.03445074 0.26413,-0.07791684 0.37207,-0.13074137 0.0919,-0.04134093 0.18621,-0.09646305 0.28267,-0.16536458 0.0988,-0.0711981 0.17668,-0.12632039 0.2341,-0.16536459 V 0 h 0.6444 v -2.6112101 c 0,-0.2480458 -0.0379,-0.4560738 -0.11368,-0.6237346 -0.0758,-0.1676602 -0.18604,-0.304145 -0.33073,-0.4097941 -0.14699,-0.1079458 -0.32189,-0.1837384 -0.524,-0.2273763 -0.19982,-0.045935 -0.43489,-0.069246 -0.7059,-0.069246 z m 4.23385,0 c -0.24575,0 -0.46836,0.032327 -0.66818,0.096635 -0.19752,0.062012 -0.36076,0.1468196 -0.48937,0.2547648 -0.13322,0.1102426 -0.23312,0.2355882 -0.29973,0.3756877 -0.0643,0.1401 -0.0966,0.2895608 -0.0966,0.4480347 0,0.2526387 0.0702,0.4662373 0.21032,0.6407877 0.1424,0.1722543 0.38223,0.303169 0.71985,0.3927409 0.12173,0.032154 0.25609,0.06184 0.40308,0.0894 0.14929,0.027561 0.26986,0.051676 0.36173,0.072347 0.24805,0.055122 0.41606,0.1218989 0.50333,0.1999878 0.0873,0.078089 0.13074,0.1925813 0.13074,0.344165 0,0.19751768 -0.0806,0.34221329 -0.24133,0.43408202 -0.16072,0.0918687 -0.38338,0.13797608 -0.66817,0.13797608 -0.22967,0 -0.46951,-0.0447868 -0.71985,-0.13435873 -0.25035,-0.0918687 -0.47772,-0.21457283 -0.68213,-0.36845296 h -0.0346 v 0.72657064 c 0.16077,0.080385 0.35927,0.15537418 0.59583,0.22427571 0.23886,0.06660486 0.50074,0.09973552 0.78548,0.09973552 0.50299,0 0.89917,-0.11236876 1.18856,-0.3374471 0.29169,-0.2250784 0.4377,-0.51366562 0.4377,-0.86506348 0,-0.2801995 -0.0814,-0.5049372 -0.24443,-0.6748942 -0.16307,-0.1676603 -0.39521,-0.2861157 -0.69608,-0.3550171 -0.0988,-0.022967 -0.22278,-0.048404 -0.37207,-0.075964 -0.14699,-0.027561 -0.28003,-0.055121 -0.39946,-0.082682 -0.21589,-0.050528 -0.37224,-0.1159855 -0.4687,-0.1963705 -0.0988,-0.080386 -0.14831,-0.1996438 -0.14831,-0.3581177 0,-0.1791439 0.0819,-0.3135042 0.24494,-0.4030761 0.16307,-0.091869 0.36289,-0.1379761 0.59945,-0.1379761 0.22737,0 0.459,0.042662 0.69556,0.1276408 0.23657,0.082682 0.4377,0.1847151 0.60307,0.3064412 h 0.0346 v -0.6924642 c -0.15618,-0.080386 -0.35255,-0.1479673 -0.58911,-0.2030883 -0.23427,-0.057418 -0.46641,-0.0863 -0.69608,-0.0863 z m 23.48849,0 c -0.24575,0 -0.46836,0.032327 -0.66818,0.096635 -0.19752,0.062012 -0.36076,0.1468196 -0.48938,0.2547648 -0.13321,0.1102426 -0.23311,0.2355882 -0.29972,0.3756877 -0.0643,0.1401 -0.0961,0.2895608 -0.0961,0.4480347 0,0.2526387 0.0697,0.4662373 0.20981,0.6407877 0.1424,0.1722543 0.38275,0.303169 0.72037,0.3927409 0.12172,0.032154 0.25608,0.06184 0.40307,0.0894 0.14929,0.027561 0.26987,0.051676 0.36174,0.072347 0.24805,0.055122 0.41554,0.1218989 0.50281,0.1999878 0.0873,0.078089 0.13074,0.1925813 0.13074,0.344165 0,0.19751768 -0.08,0.34221329 -0.24081,0.43408202 -0.16077,0.0918687 -0.3839,0.13797608 -0.66869,0.13797608 -0.22968,0 -0.46951,-0.0447868 -0.71986,-0.13435873 -0.25034,-0.0918687 -0.47772,-0.21457283 -0.68212,-0.36845296 h -0.0346 v 0.72657064 c 0.16077,0.080385 0.35979,0.15537418 0.59635,0.22427571 0.23886,0.06660486 0.50069,0.09973552 0.78548,0.09973552 0.50298,0 0.89917,-0.11236876 1.18856,-0.3374471 0.29168,-0.2250784 0.43718,-0.51366562 0.43718,-0.86506348 0,-0.2801995 -0.0814,-0.5049372 -0.24443,-0.6748942 -0.16307,-0.1676603 -0.39521,-0.2861157 -0.69608,-0.3550171 -0.0988,-0.022967 -0.22278,-0.048404 -0.37207,-0.075964 -0.14699,-0.027561 -0.28003,-0.055121 -0.39946,-0.082682 -0.21589,-0.050528 -0.37224,-0.1159855 -0.4687,-0.1963705 -0.0988,-0.080386 -0.1478,-0.1996438 -0.1478,-0.3581177 0,-0.1791439 0.0814,-0.3135042 0.24443,-0.4030761 0.16307,-0.091869 0.36288,-0.1379761 0.59945,-0.1379761 0.22737,0 0.45952,0.042662 0.69608,0.1276408 0.23656,0.082682 0.43718,0.1847151 0.60255,0.3064412 h 0.0346 v -0.6924642 c -0.15618,-0.080386 -0.35255,-0.1479673 -0.58911,-0.2030883 -0.23427,-0.057418 -0.46641,-0.0863 -0.69608,-0.0863 z m -49.18873,0.093018 V 0 h 0.6475 v -3.8483439 z m 12.77079,0 v 2.4980387 c 0,0.47771751 0.11237,0.84026015 0.33745,1.08830569 0.22508,0.24574881 0.53991,0.36896972 0.94413,0.36896972 0.24116,0 0.46164,-0.04610734 0.66146,-0.13797607 0.19981,-0.09186873 0.40864,-0.22410437 0.62683,-0.39635824 V 0 h 0.64803 v -3.8483439 h -0.64803 v 2.87320962 c -0.17225,0.13550639 -0.35829,0.24707125 -0.5581,0.33434652 -0.19752,0.0872752 -0.38011,0.13074137 -0.54777,0.13074137 -0.18833,0 -0.33171,-0.0227951 -0.43047,-0.0687297 -0.0988,-0.0459346 -0.17931,-0.11960277 -0.24133,-0.22065837 -0.0597,-0.0987589 -0.0984,-0.21669759 -0.11679,-0.35450029 -0.0184,-0.1401 -0.0279,-0.3081075 -0.0279,-0.5033285 v -2.1910807 z m 4.49224,0 V 0 h 0.64802 v -2.732133 c 0.17225,-0.1400995 0.3514,-0.2537892 0.53743,-0.3410644 0.18604,-0.089572 0.37896,-0.1343588 0.57878,-0.1343588 0.12402,0 0.23082,0.00609 0.32039,0.01757 0.0919,0.00919 0.18569,0.025092 0.28216,0.048059 h 0.0346 v -0.6650757 c -0.10106,-0.016077 -0.17685,-0.026412 -0.22738,-0.031006 -0.0505,-0.00689 -0.13189,-0.010335 -0.24443,-0.010335 -0.2044,0 -0.40554,0.043982 -0.60306,0.1312581 -0.19522,0.084979 -0.42128,0.230478 -0.67851,0.4371826 v -0.5684407 z m 19.22725,0.4273641 c 0.34451,0 0.60081,0.093018 0.76842,0.2790527 0.16996,0.1860341 0.25609,0.4491852 0.25839,0.7890991 h -2.20504 c 0.0276,-0.3031668 0.14338,-0.5573026 0.34779,-0.7617106 0.2067,-0.2044079 0.48363,-0.3064412 0.83044,-0.3064412 z m -26.46867,0.024288 c 0.3468,0 0.61765,0.1213838 0.81287,0.3648356 0.19522,0.2411556 0.293,0.6111052 0.293,1.109493 0,0.4869042 -0.0986,0.8542125 -0.2961,1.10225832 -0.19522,0.24574881 -0.46526,0.36896973 -0.80977,0.36896973 -0.34911,0 -0.62127,-0.12402473 -0.81649,-0.37207032 -0.19522,-0.25034203 -0.29301,-0.61684703 -0.29301,-1.09915773 0,-0.4983878 0.0965,-0.8683374 0.28939,-1.109493 0.19522,-0.2434518 0.46871,-0.3648356 0.82011,-0.3648356 z m 35.07796,0 c 0.34681,0 0.61765,0.1213838 0.81287,0.3648356 0.19522,0.2411556 0.29301,0.6111052 0.29301,1.109493 0,0.4869042 -0.0986,0.8542125 -0.29611,1.10225832 -0.19522,0.24574881 -0.46526,0.36896973 -0.80977,0.36896973 -0.3491,0 -0.62127,-0.12402473 -0.81649,-0.37207032 -0.19522,-0.25034203 -0.293,-0.61684703 -0.293,-1.09915773 0,-0.4983878 0.0965,-0.8683374 0.28939,-1.109493 0.19517,-0.2434518 0.4687,-0.3648356 0.8201,-0.3648356 z m -22.60327,1.3776937 v 1.0717692 c -0.16077,0.12402274 -0.33515,0.23082188 -0.52348,0.32039388 -0.18834,0.0872752 -0.39636,0.13074137 -0.62374,0.13074137 -0.27331,0 -0.47657,-0.0551221 -0.60978,-0.16536458 -0.13321,-0.1125392 -0.19999,-0.27922632 -0.19999,-0.49971107 0,-0.195221 0.0578,-0.3476107 0.1726,-0.4578532 0.11484,-0.1125393 0.2651,-0.1952226 0.45114,-0.2480469 0.15617,-0.043638 0.36765,-0.077285 0.63407,-0.1002523 0.26871,-0.022967 0.50166,-0.040193 0.69918,-0.051676 z M 112.85719,115.92832 c -0.10447,-0.007 -0.23186,-0.006 -0.38188,0.005 -0.15228,0.0113 -0.27316,0.0262 -0.36329,0.0439 -0.36168,0.0713 -0.62695,0.23741 -0.80822,0.48679 0.24853,0.0577 0.4976,0.11312 0.74621,0.17053 0.0832,-0.0455 0.17074,-0.089 0.29869,-0.1142 0.1014,-0.02 0.20963,-0.0247 0.32401,-0.0145 0.11213,0.0107 0.20229,0.0218 0.27027,0.0341 l 0.0336,-0.007 z m 6.71019,0.5793 c -0.23612,0.0108 -0.45296,0.0657 -0.65061,0.16433 -0.19779,0.0987 -0.38583,0.2324 -0.5643,0.40152 l -0.0186,-0.40256 -0.64699,0.03 0.0553,1.21026 c 0.21829,0.0476 0.43688,0.0939 0.65525,0.14108 l -0.0202,-0.43409 c 0.15701,-0.13595 0.32777,-0.24983 0.51211,-0.34106 0.18446,-0.0889 0.36836,-0.13731 0.55191,-0.14573 0.34415,-0.0158 0.59951,0.0907 0.76636,0.31988 0.16696,0.23146 0.26122,0.57541 0.28215,1.03198 3.3e-4,0.007 -0.002,0.012 -0.002,0.0191 0.21536,0.0453 0.43,0.0941 0.64543,0.13901 0.002,-0.0719 0.0262,-0.12764 0.0227,-0.20309 -0.0287,-0.62635 -0.1851,-1.11006 -0.46974,-1.45108 -0.28681,-0.34077 -0.65967,-0.50045 -1.11827,-0.47955 z m 3.9517,0.003 c -0.18824,-0.006 -0.35285,0.007 -0.49403,0.0398 -0.14111,0.0301 -0.26666,0.0699 -0.37621,0.11937 -0.0931,0.0385 -0.18875,0.0902 -0.28732,0.15606 -0.10093,0.0681 -0.18065,0.12089 -0.23926,0.15813 l 0.0124,-0.40979 -0.64388,-0.0202 -0.0667,2.14974 c 0.58349,0.12114 1.16928,0.23072 1.75338,0.34881 0.29915,-0.0293 0.56801,-0.0816 0.78807,-0.17053 0.23508,-0.0961 0.41844,-0.2329 0.55035,-0.41031 0.12956,-0.17519 0.19916,-0.40868 0.20826,-0.70022 0.0111,-0.35582 -0.10047,-0.65226 -0.33435,-0.88935 -0.23387,-0.23708 -0.52411,-0.36073 -0.87074,-0.37155 z m 2.2133,0.17156 -0.34882,2.47324 c -0.0174,0.12304 -0.005,0.22353 -0.006,0.33383 0.22305,0.0435 0.44554,0.0898 0.66869,0.13281 -0.008,-0.0663 -0.0259,-0.11953 -0.0217,-0.20206 0.006,-0.15461 0.0203,-0.31427 0.0434,-0.47801 l 0.30592,-2.16937 z m -9.34362,0.13953 -0.64234,0.0837 0.0775,0.59221 c 0.22379,0.0498 0.44844,0.0957 0.67231,0.14521 z m 11.80342,0.20774 -0.34469,2.43861 c -0.01,0.0682 -0.0166,0.1368 -0.0217,0.20567 -0.005,0.0711 -0.009,0.1338 -0.009,0.18707 -0.0526,0.0299 -0.10292,0.0434 -0.15502,0.0698 0.28461,0.0532 0.57043,0.10017 0.85524,0.15245 -0.0227,-0.0889 -0.0401,-0.18493 -0.0336,-0.31264 0.005,-0.15234 0.0197,-0.31282 0.0434,-0.48111 l 0.30644,-2.16938 z m -4.92632,0.0765 c 0.27318,0.009 0.47491,0.0701 0.60462,0.18449 0.12963,0.11664 0.19084,0.28502 0.18396,0.50539 -0.006,0.19513 -0.0683,0.34608 -0.18655,0.45269 -0.11829,0.1089 -0.27129,0.18657 -0.45889,0.23357 -0.15746,0.0387 -0.36964,0.0654 -0.63665,0.0801 -0.2693,0.0146 -0.50243,0.0246 -0.70021,0.03 l 0.0331,-1.07073 c 0.16456,-0.11895 0.34226,-0.22073 0.5333,-0.30438 0.19096,-0.0814 0.40009,-0.11819 0.62735,-0.1111 z m 7.3856,0.27027 -0.40153,2.8453 c -0.0922,0.052 -0.18114,0.0807 -0.27182,0.12196 0.29545,0.0526 0.59062,0.10656 0.88625,0.15813 l 0.4284,-3.03496 z m 1.88412,0.42891 -0.66198,2.87631 c 0.21304,0.0363 0.42507,0.0779 0.63821,0.11369 l 0.65474,-2.84427 z m 2.31149,0.56793 c -0.23564,-0.005 -0.47119,0.006 -0.70642,0.0331 l -0.19895,0.67748 0.0331,0.01 c 0.13645,-0.0653 0.34764,-0.11114 0.63303,-0.13746 0.28255,-0.0248 0.54925,-4.8e-4 0.80047,0.0734 0.18952,0.0556 0.35606,0.13359 0.4992,0.23306 0.14093,0.0988 0.25287,0.21765 0.33641,0.35708 0.0873,0.14292 0.14054,0.30804 0.15968,0.49558 0.0185,0.18975 -0.005,0.39829 -0.0718,0.62528 l -2.72076,-0.79891 -0.0987,0.33744 c -0.0702,0.23903 -0.0942,0.45581 -0.0961,0.66198 0.22942,0.0376 0.38383,0.0589 0.59841,0.0935 -0.003,-0.13494 0.0161,-0.28071 0.0615,-0.43925 l 2.11564,0.62115 c -0.0219,0.0555 -0.0594,0.0953 -0.0868,0.14521 0.18646,0.0281 0.43589,0.0698 0.61753,0.0966 0.0812,-0.15603 0.17202,-0.29905 0.2279,-0.48938 0.17922,-0.61043 0.14582,-1.13261 -0.10026,-1.56631 -0.24667,-0.43149 -0.67669,-0.73687 -1.28932,-0.91674 -0.24021,-0.0705 -0.47802,-0.1081 -0.71365,-0.11265 z m -28.72642,0.53071 c -0.14588,0.0661 -0.29563,0.12731 -0.41186,0.23048 -0.16533,0.14676 -0.31242,0.32515 -0.4408,0.53485 l -0.12247,-0.38395 -0.61702,0.19688 1.62936,5.10718 0.61702,-0.19688 -0.50695,-1.58854 c 0.19133,0.033 0.36781,0.0453 0.52917,0.0372 0.16205,-0.006 0.3392,-0.0393 0.53175,-0.10077 0.21224,-0.0677 0.40396,-0.1771 0.57516,-0.32814 0.16901,-0.15034 0.30165,-0.33246 0.39739,-0.54622 0.0965,-0.21883 0.15055,-0.46386 0.16278,-0.73536 0.0101,-0.27079 -0.0342,-0.56159 -0.13332,-0.8723 -0.12309,-0.38583 -0.29522,-0.67412 -0.49041,-0.91725 -0.59269,-0.14929 -1.16935,-0.29771 -1.7198,-0.43719 z m 0.6656,0.48628 c 0.13722,0.0183 0.26121,0.0718 0.37155,0.16071 0.22138,0.18009 0.40164,0.48803 0.54054,0.92346 0.14099,0.442 0.15359,0.8141 0.0377,1.11621 -0.11577,0.30212 -0.34675,0.50829 -0.69246,0.61857 -0.15536,0.0496 -0.30303,0.0811 -0.44339,0.0946 -0.14036,0.0134 -0.30555,0.009 -0.49558,-0.0119 l -0.67127,-2.10375 c 0.11627,-0.17209 0.25188,-0.32649 0.40617,-0.4625 0.155,-0.13382 0.32002,-0.22838 0.49506,-0.28422 0.16411,-0.0524 0.31443,-0.0695 0.45166,-0.0512 z m 2.88251,0.40979 0.37052,1.49862 -1.11363,0.27543 0.13074,0.52814 1.13378,-0.28009 0.0315,0.12713 c 0.0772,0.31214 0.07,0.54194 -0.0212,0.68988 -0.0929,0.15072 -0.27437,0.25936 -0.54415,0.32607 -0.0847,0.0209 -0.18532,0.034 -0.30231,0.0393 -0.11644,0.007 -0.21169,0.01 -0.28577,0.007 l -0.0336,0.008 0.14211,0.57568 c 0.0981,-0.005 0.20596,-0.0157 0.32298,-0.0305 0.11478,-0.0142 0.24194,-0.0387 0.3824,-0.0734 0.41694,-0.10308 0.70642,-0.30113 0.86817,-0.59428 0.16229,-0.29091 0.18856,-0.65805 0.0791,-1.10174 l -0.0305,-0.12402 0.42478,-0.10491 -0.13074,-0.52813 -0.42478,0.1049 -0.29197,-1.18132 c -0.2356,-0.0548 -0.47193,-0.10664 -0.70745,-0.16175 z m -6.79339,0.28887 c -0.15777,0.003 -0.31667,0.0377 -0.47697,0.10387 -0.1741,0.0718 -0.3191,0.15135 -0.4346,0.23875 -0.11637,0.0853 -0.21439,0.17304 -0.29404,0.26303 -0.0692,0.0733 -0.13502,0.15997 -0.19792,0.26045 -0.0641,0.10348 -0.11529,0.18437 -0.15348,0.24236 l -0.15658,-0.3793 -0.59531,0.24598 0.99581,2.4138 c 0.0946,0.2293 0.20912,0.40722 0.34313,0.53331 0.134,0.12609 0.28794,0.2102 0.46199,0.25269 0.17699,0.0437 0.36702,0.0471 0.5705,0.0103 0.20224,-0.0337 0.42901,-0.10181 0.67955,-0.20516 0.21444,-0.0885 0.42386,-0.1978 0.6289,-0.32711 0.20504,-0.1293 0.35939,-0.23366 0.46302,-0.31368 l -0.25063,-0.60823 -0.032,0.0129 c -0.17354,0.16351 -0.34847,0.30526 -0.52503,0.4253 -0.17569,0.12217 -0.34208,0.21578 -0.4992,0.2806 -0.12951,0.0534 -0.25753,0.0961 -0.38344,0.12816 -0.1259,0.0321 -0.24116,0.0412 -0.34623,0.0274 -0.11019,-0.0142 -0.20692,-0.0562 -0.29042,-0.12609 -0.0856,-0.069 -0.15685,-0.1716 -0.21291,-0.30748 l -0.0377,-0.092 c 0.34119,-0.16063 0.6566,-0.32085 0.9462,-0.48007 0.28959,-0.15922 0.52306,-0.33137 0.70021,-0.51625 0.17503,-0.184 0.28625,-0.38354 0.33383,-0.59945 0.0463,-0.2129 0.0136,-0.45435 -0.0977,-0.72399 -0.13576,-0.32909 -0.35869,-0.55402 -0.66921,-0.67437 -0.15526,-0.0602 -0.31196,-0.0888 -0.46974,-0.0858 z m 8.78758,0.16744 0.231,1.1715 1.42316,-0.2806 -0.10542,-0.53382 -0.78754,0.15503 -0.0698,-0.35398 c -0.23047,-0.0527 -0.46103,-0.1051 -0.69143,-0.15813 z m 29.09022,0.11937 -0.64751,1.56683 c 0.21676,0.0298 0.43206,0.0603 0.66249,0.092 l 0.58343,-1.4118 z m -26.92653,0.37569 -0.24598,0.31832 0.80977,-0.10593 0.0532,-0.0708 c -0.20591,-0.0462 -0.41117,-0.0952 -0.61702,-0.14159 z m -10.78797,0.008 c 0.16606,0.0532 0.29109,0.18168 0.37517,0.3855 0.0745,0.18047 0.0796,0.34367 0.0155,0.48938 -0.0632,0.14783 -0.17115,0.28175 -0.32298,0.40153 -0.12774,0.0999 -0.31024,0.21101 -0.54777,0.33382 -0.23965,0.12371 -0.44862,0.22877 -0.62684,0.31471 l -0.40824,-0.99063 c 0.10132,-0.17596 0.22179,-0.34096 0.36173,-0.49558 0.14082,-0.1525 0.31639,-0.27244 0.52659,-0.35915 0.25265,-0.10423 0.46165,-0.13062 0.62683,-0.0796 z m 39.02914,0.19378 -0.24649,0.5271 0.0315,0.0145 c 0.0545,0.003 0.14072,0.0137 0.25838,0.0331 0.1167,0.0215 0.22258,0.0546 0.31833,0.0992 0.16444,0.0767 0.27891,0.15309 0.34261,0.22841 0.0607,0.0764 0.0943,0.16669 0.10129,0.27131 0.005,0.065 -0.0159,0.12637 -0.0269,0.18913 0.22086,0.0289 0.44208,0.0548 0.66301,0.0832 0.0401,-0.20457 0.0451,-0.39195 -0.009,-0.54984 -0.0959,-0.27789 -0.32102,-0.50012 -0.67696,-0.66611 -0.102,-0.0476 -0.22291,-0.0919 -0.3607,-0.13332 -0.1397,-0.0423 -0.27103,-0.0744 -0.39481,-0.0966 z m -25.74623,0.35244 0.11989,0.91519 0.64234,-0.0837 -0.0899,-0.68678 c -0.22399,-0.0488 -0.44839,-0.0955 -0.67231,-0.14469 z m 1.59215,0.34261 0.0186,0.40721 0.64699,-0.0294 -0.0109,-0.23668 c -0.21833,-0.0467 -0.43648,-0.094 -0.65474,-0.14108 z m -18.143076,0.0351 c -0.179747,3.9e-4 -0.390729,0.023 -0.633036,0.0677 -0.243328,0.0478 -0.492275,0.13564 -0.746724,0.26355 -0.449399,0.2259 -0.752559,0.50453 -0.910022,0.83561 -0.159521,0.3321 -0.160329,0.65497 -0.0026,0.96893 0.125847,0.25035 0.299386,0.4149 0.521415,0.49351 0.220997,0.0766 0.481583,0.0774 0.781348,0.005 0.09855,-0.0238 0.220624,-0.0563 0.366386,-0.0987 0.143704,-0.0414 0.275206,-0.0764 0.394291,-0.10542 0.215581,-0.0518 0.384676,-0.0631 0.506942,-0.0346 0.12435,0.0275 0.22183,0.11213 0.29301,0.25373 0.0805,0.16006 0.0683,0.31648 -0.0372,0.46974 -0.10443,0.15533 -0.26251,0.28649 -0.473871,0.39274 -0.203153,0.10212 -0.429506,0.16812 -0.679028,0.19844 -0.248497,0.0324 -0.474026,0.0309 -0.676445,-0.003 l -0.03049,0.0155 0.310575,0.61857 c 0.175643,0.002 0.381933,-0.0257 0.618051,-0.0827 0.235092,-0.0539 0.455209,-0.1325 0.660427,-0.23565 0.21957,-0.11038 0.40381,-0.23934 0.55345,-0.38654 0.14863,-0.14412 0.25655,-0.29331 0.32298,-0.44752 0.0695,-0.15833 0.10212,-0.31516 0.0987,-0.47025 -0.005,-0.15406 -0.0435,-0.30179 -0.11472,-0.44338 -0.11347,-0.22573 -0.27185,-0.38498 -0.47542,-0.47801 -0.2046,-0.09 -0.477715,-0.099 -0.819591,-0.0274 -0.123201,0.0259 -0.256783,0.0594 -0.400493,0.10077 -0.145761,0.0424 -0.26469,0.0749 -0.35605,0.0977 -0.246379,0.0622 -0.425936,0.0781 -0.538986,0.0475 -0.11305,-0.0306 -0.203736,-0.11364 -0.271818,-0.24908 -0.08871,-0.17647 -0.08171,-0.3418 0.02067,-0.49609 0.102382,-0.15429 0.280914,-0.29532 0.535368,-0.42323 0.205205,-0.10315 0.43993,-0.1712 0.703833,-0.20361 0.264934,-0.0304 0.522904,-0.0224 0.774626,0.0233 l 0.031,-0.0155 z m 12.924276,0.24288 -0.71675,0.14159 0.12971,0.65888 0.71675,-0.14108 z m -16.547827,1.38286 -0.561206,0.3235 1.650028,2.86235 -0.993738,0.5731 0.271819,0.47129 1.011824,-0.58343 0.06563,0.11369 c 0.160605,0.27856 0.217176,0.50129 0.170532,0.66869 -0.04749,0.17054 -0.19126,0.32525 -0.432015,0.46405 -0.07561,0.0436 -0.169129,0.084 -0.280086,0.12144 -0.10981,0.0394 -0.200329,0.0681 -0.272335,0.0858 l -0.02997,0.0176 0.296106,0.51314 c 0.09274,-0.0323 0.192915,-0.0718 0.301274,-0.11834 0.106363,-0.0454 0.22243,-0.10446 0.347782,-0.17673 0.372076,-0.21452 0.594976,-0.48485 0.66921,-0.81132 0.07538,-0.32448 -6.39e-4,-0.6846 -0.228927,-1.08055 l -0.06408,-0.11059 0.379305,-0.21859 -0.271818,-0.47129 -0.379305,0.21859 z m -2.944523,0.23151 c -0.186127,0.0601 -0.367137,0.13177 -0.54312,0.21549 -0.179161,0.0831 -0.353689,0.18152 -0.523999,0.29456 -0.512838,0.34038 -0.808318,0.71956 -0.88625,1.13791 -0.07793,0.41835 0.06356,0.89935 0.424263,1.44281 l 1.885673,2.84169 0.505396,-0.33538 -0.05684,-0.16072 c 0.19049,-0.0162 0.360656,-0.0481 0.511079,-0.0956 0.149786,-0.0443 0.31771,-0.12795 0.503329,-0.25115 0.176051,-0.11684 0.327592,-0.27249 0.454753,-0.46715 0.128425,-0.19275 0.209705,-0.3986 0.243912,-0.61702 0.03742,-0.23434 0.02855,-0.47773 -0.02635,-0.7307 -0.05554,-0.24982 -0.174708,-0.51251 -0.357601,-0.78807 -0.334028,-0.50327 -0.705057,-0.81939 -1.11311,-0.94826 -0.408697,-0.12569 -0.804289,-0.0618 -1.187008,0.19224 -0.229626,0.15241 -0.397377,0.30931 -0.502811,0.47025 -0.106078,0.16413 -0.197079,0.3655 -0.273369,0.60358 l -0.194303,-0.293 c -0.08637,-0.13013 -0.150052,-0.25759 -0.191203,-0.38189 -0.04115,-0.1243 -0.0531,-0.24575 -0.03566,-0.36484 0.0149,-0.12291 0.06782,-0.24649 0.159164,-0.37052 0.09134,-0.12403 0.22919,-0.24704 0.412895,-0.36897 0.191354,-0.12701 0.399638,-0.228 0.625284,-0.30334 0.224382,-0.0773 0.391925,-0.12795 0.502812,-0.15193 l 0.02894,-0.0191 z m 0.461987,2.13372 c 0.135569,-0.0231 0.265926,-0.009 0.390674,0.0419 0.249496,0.10179 0.493478,0.33222 0.732255,0.69195 0.251477,0.37889 0.358098,0.72458 0.319877,1.03663 -0.03822,0.31205 -0.205688,0.56642 -0.502295,0.76326 -0.12247,0.0813 -0.25432,0.14844 -0.395841,0.20102 -0.142165,0.0558 -0.306291,0.0985 -0.492994,0.12867 l -1.160652,-1.74769 c 0.06472,-0.18906 0.156216,-0.36717 0.274402,-0.53382 0.117542,-0.16347 0.254946,-0.29738 0.411861,-0.40153 0.14639,-0.0972 0.287144,-0.15721 0.422713,-0.18035 z m 47.635853,0.0863 -0.10077,0.21549 0.58704,0.27389 0.18552,-0.39791 c -0.0427,-0.006 -0.0855,-0.0104 -0.12815,-0.016 -0.22656,-0.0314 -0.33151,-0.046 -0.54364,-0.0755 z m 4.33358,0.55036 c 0.004,0.0697 -0.0194,0.1433 -0.008,0.21187 0.0842,0.47923 0.35684,0.85981 0.81752,1.14102 0.46461,0.2836 0.929,0.35294 1.39372,0.20877 0.46156,-0.14338 0.85567,-0.48233 1.18235,-1.01751 0.0324,-0.0531 0.0383,-0.1025 0.0667,-0.15503 -0.24173,-0.0261 -0.48336,-0.0529 -0.72502,-0.0796 -0.23414,0.34744 -0.47843,0.58837 -0.73691,0.68213 -0.29347,0.10608 -0.59045,0.0678 -0.89038,-0.11524 -0.29602,-0.18069 -0.46355,-0.42584 -0.50333,-0.73536 -0.003,-0.0199 0.008,-0.0452 0.007,-0.0656 -0.20136,-0.0237 -0.40227,-0.0512 -0.60359,-0.0754 z m 4.46898,0.50177 -1.50843,2.08205 0.49144,0.35605 0.13023,-0.10956 c 0.0819,0.17276 0.17155,0.32119 0.26871,0.44546 0.094,0.12477 0.23093,0.25222 0.41135,0.38292 0.17112,0.12396 0.36999,0.21161 0.59686,0.26251 0.22553,0.0528 0.44696,0.0569 0.66353,0.0124 0.21368,-0.0432 0.41944,-0.1361 0.62063,-0.25787 -0.0834,0.35799 -0.0356,0.73784 0.18913,1.14722 0.26971,0.49123 0.64954,0.79891 1.13947,0.92294 0.48883,0.12202 1.009,0.0316 1.56063,-0.2713 0.55767,-0.30618 0.90247,-0.69984 1.03404,-1.18081 0.12956,-0.47987 0.0406,-0.99991 -0.26665,-1.55959 -0.12048,-0.21945 -0.26254,-0.41345 -0.42633,-0.58291 -0.16378,-0.16947 -0.33846,-0.32786 -0.524,-0.47491 l -0.61908,0.34003 0.0165,0.03 c 0.14274,0.05 0.32435,0.16613 0.54518,0.34882 0.21771,0.18178 0.38973,0.3875 0.51573,0.61702 0.0951,0.17314 0.15787,0.34579 0.18914,0.51728 0.0302,0.16947 0.0257,0.33266 -0.0134,0.49041 -0.039,0.16287 -0.11742,0.31763 -0.23616,0.46405 -0.12075,0.14752 -0.28511,0.27838 -0.49247,0.39222 l -1.36426,-2.48563 -0.30799,0.1695 c -0.005,0.003 -0.007,0.007 -0.0124,0.009 0.15301,-0.31286 0.2536,-0.61697 0.23875,-0.90227 -0.0225,-0.37586 -0.20287,-0.67997 -0.49403,-0.9338 -0.78225,-0.0756 -1.56446,-0.14981 -2.34611,-0.23151 z m 0.65319,0.20258 c 0.19975,-0.006 0.39834,0.0174 0.59583,0.0698 0.19429,0.0528 0.36786,0.13446 0.52038,0.24495 0.28458,0.20614 0.4229,0.44379 0.41497,0.71313 -0.008,0.26935 -0.13841,0.57895 -0.39171,0.92863 -0.26678,0.36827 -0.5532,0.58948 -0.85886,0.663 -0.30567,0.0735 -0.60261,0.006 -0.89091,-0.20308 -0.11904,-0.0862 -0.22776,-0.18663 -0.32659,-0.30076 -0.10204,-0.11362 -0.20035,-0.25274 -0.29404,-0.41703 z m -63.467958,2.42517 c -0.03321,0.0338 -0.06372,0.0577 -0.09819,0.0961 -0.09792,0.10852 -0.183396,0.21414 -0.256315,0.31678 l 0.373104,0.44751 0.02635,-0.0222 c 0.02558,-0.0482 0.0719,-0.1214 0.139526,-0.21962 0.04587,-0.0641 0.09855,-0.11203 0.149862,-0.1633 -0.05955,-0.0879 -0.114782,-0.17645 -0.176217,-0.26407 -0.05099,-0.0651 -0.106729,-0.12636 -0.15813,-0.1912 z m 65.604778,0.0527 1.06144,1.9327 c -0.27902,0.12174 -0.55754,0.14225 -0.83509,0.0615 -0.27866,-0.0828 -0.50128,-0.27635 -0.66818,-0.58032 -0.1658,-0.30199 -0.20744,-0.5712 -0.12506,-0.8077 0.0813,-0.23852 0.27004,-0.44057 0.56689,-0.60617 z m -66.470358,1.341 c -0.497026,-0.005 -0.977746,0.21155 -1.442289,0.64958 -0.182143,0.17174 -0.334963,0.35855 -0.457854,0.55965 -0.122885,0.20111 -0.231905,0.4098 -0.327628,0.62632 l 0.484208,0.51367 0.02532,-0.0238 c 0.01255,-0.15073 0.07914,-0.35582 0.200505,-0.61546 0.121266,-0.2564 0.277173,-0.47409 0.467672,-0.65371 0.143709,-0.1355 0.295072,-0.24033 0.453202,-0.31368 0.156459,-0.0718 0.315483,-0.10834 0.478007,-0.11007 0.167442,-0.003 0.336946,0.0345 0.508496,0.11266 0.173126,0.0798 0.341039,0.20564 0.503329,0.37775 l -2.062924,1.9451 0.241329,0.2558 c 0.382878,0.40606 0.780722,0.62228 1.194243,0.64906 0.411844,0.0283 0.806769,-0.13535 1.184424,-0.49144 0.407728,-0.38446 0.610218,-0.82943 0.607198,-1.33481 -0.0047,-0.5038 -0.223019,-0.98494 -0.654741,-1.4428 -0.436444,-0.46288 -0.903902,-0.69731 -1.402498,-0.70384 z m 1.233516,1.48363 c 0.187931,0.23949 0.277726,0.50377 0.269234,0.79272 -0.01016,0.29053 -0.141447,0.5548 -0.393774,0.79272 -0.250656,0.23634 -0.501252,0.34434 -0.750858,0.32401 -0.251283,-0.0188 -0.494291,-0.15062 -0.729155,-0.39636 z m -4.010608,0.91261 c -0.168204,0.0634 -0.357685,0.15847 -0.568957,0.28525 -0.211148,0.13003 -0.413719,0.29952 -0.607198,0.5085 -0.341709,0.36909 -0.52822,0.73596 -0.559656,1.10123 -0.033,0.36695 0.07959,0.66974 0.337447,0.90847 0.205612,0.19036 0.425966,0.28376 0.661458,0.27957 0.233813,-0.006 0.478328,-0.0958 0.733289,-0.26975 0.08395,-0.0569 0.186864,-0.13087 0.308508,-0.2217 0.120085,-0.0891 0.230919,-0.16776 0.33228,-0.23667 0.183747,-0.1241 0.337984,-0.19467 0.462504,-0.21084 0.12608,-0.0179 0.246996,0.0272 0.363285,0.13487 0.131457,0.12171 0.174762,0.27269 0.129708,0.4532 -0.04337,0.18208 -0.145729,0.36023 -0.306441,0.53382 -0.154471,0.16685 -0.342787,0.30789 -0.565857,0.42375 -0.221385,0.11742 -0.432921,0.19544 -0.634587,0.23409 l -0.02377,0.0253 0.508496,0.47078 c 0.165089,-0.06 0.34816,-0.15842 0.549321,-0.29456 0.20128,-0.1329 0.379853,-0.28363 0.535884,-0.45217 0.166954,-0.18033 0.294882,-0.36521 0.383439,-0.55552 0.08868,-0.18707 0.137045,-0.36455 0.145211,-0.53227 0.0096,-0.17264 -0.01479,-0.33137 -0.07235,-0.47542 -0.05912,-0.14237 -0.146744,-0.26699 -0.263033,-0.37465 -0.185388,-0.17164 -0.389622,-0.26535 -0.612882,-0.28112 -0.223141,-0.0125 -0.482119,0.0746 -0.777214,0.26148 -0.106291,0.0675 -0.21943,0.14547 -0.339514,0.23461 -0.121645,0.0908 -0.221626,0.16315 -0.299207,0.21652 -0.208957,0.14457 -0.371748,0.22207 -0.488342,0.23306 -0.116594,0.011 -0.230348,-0.035 -0.341581,-0.13797 -0.14494,-0.13416 -0.196321,-0.29142 -0.154513,-0.47181 0.04181,-0.18038 0.159476,-0.37496 0.35295,-0.58394 0.156032,-0.16854 0.351764,-0.31433 0.587561,-0.43718 0.237488,-0.12129 0.48202,-0.20466 0.733806,-0.25012 l 0.02377,-0.0253 z m 66.89256,1.20871 v 0.73019 h 0.67179 v -0.73019 z m 1.3162,0.0413 v 0.64751 h 3.84834 v -0.64751 z m 1.23661,1.9017 c -0.24804,0 -0.45555,0.0379 -0.62321,0.11368 -0.16767,0.0758 -0.30467,0.18604 -0.41031,0.33073 -0.10795,0.14699 -0.18374,0.32137 -0.22738,0.52349 -0.0459,0.19981 -0.0687,0.4354 -0.0687,0.70641 0,0.23197 0.0207,0.46704 0.062,0.7059 0.0413,0.23886 0.0792,0.42145 0.11369,0.54777 h 0.65784 v -0.0341 c -0.085,-0.22279 -0.14912,-0.43902 -0.19275,-0.64803 -0.0459,-0.209 -0.0687,-0.39848 -0.0687,-0.56844 0,-0.1401 0.009,-0.27446 0.0274,-0.40307 0.0184,-0.12862 0.0541,-0.23886 0.10697,-0.33073 0.0551,-0.0965 0.13091,-0.16962 0.22737,-0.22014 0.0965,-0.0528 0.21785,-0.0796 0.36484,-0.0796 h 0.10025 c 0.0184,0.37667 0.0459,0.72939 0.0827,1.05782 0.0368,0.32843 0.10646,0.60961 0.20981,0.84388 0.10335,0.23197 0.24592,0.41111 0.42736,0.53743 0.17915,0.12403 0.41474,0.18604 0.70642,0.18604 0.35599,0 0.64883,-0.12058 0.8785,-0.36174 0.22967,-0.24115 0.34416,-0.53479 0.34416,-0.8816 0,-0.18833 -0.018,-0.35289 -0.0548,-0.49299 -0.0345,-0.1401 -0.0784,-0.26412 -0.13126,-0.37207 -0.0413,-0.0919 -0.0965,-0.18569 -0.16537,-0.28215 -0.0712,-0.0988 -0.12632,-0.1772 -0.16536,-0.23462 h 0.41031 v -0.64388 z m -72.271554,0.0114 c -0.293122,0.0225 -0.564794,0.18495 -0.815454,0.4873 -0.07183,0.0866 -0.145172,0.19138 -0.220141,0.3142 -0.07644,0.12458 -0.141368,0.24388 -0.194304,0.35811 l 0.448035,0.37156 0.02222,-0.0264 c 0.01633,-0.0521 0.04861,-0.13291 0.09715,-0.24184 0.05031,-0.10747 0.109305,-0.20186 0.176734,-0.28319 0.115802,-0.13968 0.217964,-0.2308 0.306958,-0.27337 0.0893,-0.0393 0.185898,-0.0487 0.288871,-0.0289 0.11121,0.0206 0.212906,0.0629 0.305408,0.12764 0.09427,0.0662 0.219059,0.16401 0.374654,0.29301 l 1.349788,1.11931 -0.852661,1.02888 0.418579,0.34726 0.853178,-1.02887 0.851628,0.7059 0.413411,-0.49868 -0.851627,-0.7059 0.279569,-0.33693 -0.419096,-0.34727 -0.279569,0.33693 -1.575098,-1.30638 c -0.358924,-0.29756 -0.685107,-0.43488 -0.978235,-0.41237 z m 72.864284,0.63251 h 1.07126 c 0.12397,0.16078 0.23082,0.33567 0.32039,0.524 0.0873,0.18834 0.13126,0.39585 0.13126,0.62322 0,0.27331 -0.0551,0.47657 -0.16537,0.60978 -0.11254,0.13321 -0.27922,0.19999 -0.49971,0.19999 -0.19522,0 -0.34813,-0.0572 -0.45837,-0.17208 -0.11254,-0.11484 -0.19522,-0.26562 -0.24805,-0.45165 -0.0436,-0.15618 -0.0768,-0.36714 -0.0997,-0.63356 -0.023,-0.26871 -0.0402,-0.50218 -0.0517,-0.6997 z m -74.37737,1.54306 c -0.482801,0.0444 -0.885519,0.28627 -1.207678,0.72502 -0.31944,0.43505 -0.427758,0.88928 -0.325561,1.36323 0.05305,0.24605 0.166,0.47671 0.327628,0.69505 0.802771,0.29813 1.596962,0.62033 2.383834,0.96169 0.338839,-0.10392 0.645185,-0.28486 0.888318,-0.61598 0.322159,-0.43875 0.431159,-0.89621 0.327112,-1.37149 -0.103556,-0.4721 -0.408242,-0.89343 -0.91364,-1.26452 -0.505392,-0.3711 -0.998566,-0.53555 -1.480013,-0.493 z m 0.02532,0.61702 c 0.317326,-0.009 0.670599,0.12899 1.059367,0.41444 0.401721,0.29498 0.642752,0.59164 0.722953,0.88987 0.08069,0.30145 0.01677,0.59371 -0.191203,0.87695 -0.205257,0.27954 -0.463886,0.42598 -0.775663,0.43925 -0.309926,0.0146 -0.665397,-0.12516 -1.067118,-0.42013 -0.392471,-0.28817 -0.630616,-0.5854 -0.713652,-0.89142 -0.08254,-0.3028 -0.02148,-0.59305 0.182418,-0.87074 0.206616,-0.2814 0.467418,-0.42767 0.782898,-0.43822 z m 76.371048,0.86816 -2.07067,1.91927 -1.77767,-1.78801 v 0.81649 l 1.92598,1.87069 h -3.43855 v 0.6475 h 5.36091 v -0.6475 h -1.28519 l -0.39946,-0.42065 1.68465,-1.54306 z m -80.680863,4.06332 -0.09819,0.16382 2.109432,1.27124 c 0.05901,0.0356 0.119483,0.0691 0.180868,0.10076 0.06335,0.0328 0.119148,0.0603 0.167948,0.0816 0.02634,0.22772 0.03089,0.44226 0.01395,0.64389 -0.01497,0.20282 -0.06913,0.38203 -0.162781,0.53744 -0.09603,0.15933 -0.191001,0.26809 -0.285254,0.32659 -0.09425,0.0585 -0.197172,0.0848 -0.309025,0.0791 -0.10358,-0.006 -0.224892,-0.043 -0.363802,-0.11059 -0.140096,-0.0657 -0.281086,-0.14099 -0.422713,-0.22634 l -1.876888,-1.1312 -0.334347,0.555 2.139404,1.28933 c 0.393424,0.2371 0.751684,0.33452 1.074353,0.29301 0.323456,-0.0384 0.594221,-0.23853 0.812354,-0.60048 0.126849,-0.21048 0.203626,-0.43333 0.230477,-0.66921 0.02882,-0.2347 0.01649,-0.52132 -0.03721,-0.85938 0.213439,0.0241 0.414835,-0.0143 0.604097,-0.11472 0.100107,-0.0524 0.172784,-0.1698 0.257866,-0.25787 -0.246976,-0.10542 -0.495405,-0.20674 -0.744141,-0.30747 -0.01938,0.001 -0.03479,0.0155 -0.05478,0.0145 -0.10358,-0.006 -0.224892,-0.043 -0.363802,-0.11059 -0.138128,-0.0645 -0.27973,-0.14068 -0.425297,-0.22841 l -0.02687,-0.016 c -0.688514,-0.2609 -1.383651,-0.50292 -2.085661,-0.72399 z m -1.927014,3.41788 -0.01292,0.0264 c 0.04389,0.0105 0.08789,0.0205 0.131775,0.031 z m 82.515377,0.27854 c -0.15668,0.0627 -0.31352,0.12499 -0.47026,0.18758 0.0151,0.0785 0.0333,0.15205 0.0476,0.23203 0.11397,-0.01 0.22763,-0.0226 0.34158,-0.0315 0.0725,-0.005 0.14506,-0.006 0.21756,-0.0109 -0.0218,-0.14817 -0.094,-0.24853 -0.13643,-0.37723 z m -81.817228,3.63698 0.14366,0.0698 c 0.329796,0.16006 0.618918,0.20439 0.886251,0.18707 -0.343097,-0.0865 -0.686426,-0.17193 -1.029911,-0.25684 z m -2.594157,0.12609 -0.248047,0.5979 2.52336,1.04697 c 0.06341,0.21278 0.0997,0.42155 0.109037,0.62683 0.01146,0.20616 -0.02111,0.40144 -0.09767,0.58601 -0.04752,0.11456 -0.09357,0.21105 -0.138493,0.28939 -0.04368,0.0813 -0.09479,0.16258 -0.152962,0.24288 l -0.01292,0.0315 0.613916,0.25477 c 0.05357,-0.0872 0.09215,-0.15301 0.115755,-0.19792 0.02572,-0.044 0.06023,-0.11826 0.103353,-0.22221 0.07832,-0.18881 0.11501,-0.39135 0.110071,-0.6072 -0.0037,-0.21289 -0.0518,-0.47747 -0.144178,-0.79427 l 0.525033,0.21756 0.248564,-0.5979 z m 84.263595,0.26097 c -0.17727,0.014 -0.35457,0.0283 -0.53176,0.045 0.0474,0.0794 0.10428,0.15117 0.1447,0.23616 0.0873,0.18833 0.13126,0.39636 0.13126,0.62373 0,0.27332 -0.0551,0.47658 -0.16537,0.60979 -0.11254,0.13321 -0.27922,0.19947 -0.49971,0.19947 -0.19522,0 -0.34813,-0.0573 -0.45837,-0.17208 -0.11254,-0.11484 -0.19522,-0.26511 -0.24805,-0.45114 -0.0436,-0.15618 -0.0768,-0.36765 -0.0997,-0.63407 -0.008,-0.0993 -0.0122,-0.1688 -0.0191,-0.25838 -0.17216,0.0291 -0.34334,0.0627 -0.51367,0.10025 0.0136,0.17186 0.0224,0.35589 0.0403,0.51625 0.0368,0.32843 0.10646,0.61012 0.20981,0.84439 0.10335,0.23197 0.24592,0.41112 0.42736,0.53744 0.17915,0.12402 0.41474,0.18603 0.70642,0.18603 0.35599,0 0.64883,-0.12058 0.8785,-0.36173 0.22967,-0.24116 0.34416,-0.53531 0.34416,-0.88212 0,-0.18833 -0.018,-0.35238 -0.0548,-0.49248 -0.0345,-0.1401 -0.0784,-0.26412 -0.13126,-0.37207 -0.0401,-0.0892 -0.0946,-0.18086 -0.16071,-0.2744 z m -3.11196,0.52968 c -0.15984,0.0537 -0.31805,0.11343 -0.47491,0.17932 -0.0375,0.0161 -0.0742,0.0352 -0.11162,0.0517 -6e-5,0.0102 -0.003,0.0166 -0.003,0.0269 0,0.23197 0.0207,0.46756 0.062,0.70642 0.0413,0.23886 0.0792,0.42145 0.11369,0.54777 h 0.65784 v -0.0346 c -0.085,-0.22278 -0.14912,-0.4385 -0.19275,-0.6475 -0.0459,-0.20901 -0.0687,-0.39849 -0.0687,-0.56844 0,-0.0909 0.01,-0.17544 0.0176,-0.26149 z m -81.692687,2.31097 c -0.176655,-0.01 -0.331937,0.0149 -0.466122,0.0749 -0.26837,0.12004 -0.469557,0.36464 -0.603581,0.73381 -0.0384,0.10578 -0.07212,0.22962 -0.101285,0.37052 -0.02995,0.14306 -0.0507,0.27717 -0.06201,0.40256 l 0.547253,0.19844 0.01189,-0.032 c -0.0022,-0.0545 9.44e-4,-0.14154 0.0098,-0.26045 0.01112,-0.11813 0.03474,-0.22677 0.0708,-0.32608 0.06192,-0.17055 0.127461,-0.29113 0.196887,-0.36122 0.0708,-0.0671 0.158403,-0.10839 0.262,-0.12454 0.111641,-0.0181 0.22181,-0.013 0.330729,0.017 0.111078,0.0306 0.261672,0.0804 0.451652,0.14935 l 1.647962,0.59841 -0.455787,1.25677 0.511597,0.18552 0.455786,-1.25625 1.03973,0.37724 0.221175,-0.60875 -1.03973,-0.37724 0.149345,-0.41134 -0.511596,-0.18604 -0.149345,0.41134 -1.923397,-0.69814 c -0.219124,-0.0796 -0.417113,-0.12408 -0.593762,-0.13385 z m 83.935447,0.18966 c -0.2802,0 -0.50546,0.0814 -0.67541,0.24443 -0.16766,0.16306 -0.2856,0.39521 -0.3545,0.69608 -0.023,0.0988 -0.0484,0.22278 -0.076,0.37207 -0.0276,0.14699 -0.0551,0.28003 -0.0827,0.39946 -0.0505,0.21589 -0.11599,0.37224 -0.19637,0.4687 -0.0804,0.0988 -0.19964,0.14831 -0.35812,0.14831 -0.17914,0 -0.3135,-0.0819 -0.40307,-0.24494 -0.0919,-0.16307 -0.13798,-0.36289 -0.13798,-0.59945 0,-0.22738 0.0427,-0.459 0.12764,-0.69556 0.0827,-0.23657 0.18471,-0.4377 0.30644,-0.60307 V 155.02 h -0.69246 c -0.0804,0.15613 -0.14797,0.35255 -0.20309,0.58911 -0.0574,0.23427 -0.0863,0.46641 -0.0863,0.69608 0,0.24575 0.0323,0.46835 0.0966,0.66817 0.062,0.19752 0.14682,0.36077 0.25477,0.48938 0.11024,0.13321 0.23559,0.23311 0.37569,0.29972 0.1401,0.0643 0.28904,0.0966 0.44751,0.0966 0.25264,0 0.46624,-0.0702 0.64079,-0.21032 0.17226,-0.1424 0.30317,-0.38224 0.39274,-0.71986 0.0322,-0.12173 0.0624,-0.25608 0.0899,-0.40307 0.0276,-0.14929 0.0517,-0.26987 0.0724,-0.36174 0.0551,-0.24804 0.12138,-0.41606 0.19947,-0.50333 0.0781,-0.0873 0.1931,-0.13074 0.34468,-0.13074 0.19752,0 0.34221,0.0806 0.43408,0.24133 0.0919,0.16077 0.13798,0.38339 0.13798,0.66818 0,0.22967 -0.0448,0.46951 -0.13436,0.71985 -0.0919,0.25035 -0.21509,0.47772 -0.36897,0.68213 v 0.0346 h 0.72709 c 0.0804,-0.16077 0.15485,-0.35927 0.22376,-0.59583 0.0666,-0.23886 0.10025,-0.50068 0.10025,-0.78548 0,-0.50298 -0.11289,-0.89918 -0.33797,-1.18856 -0.22508,-0.29169 -0.51314,-0.4377 -0.86454,-0.4377 z m -43.78493,3.28558 v 0.6718 h 0.73019 v -0.6718 z m -37.523804,0.20981 v 1.10588 h -0.4377 v 0.54467 h 0.4377 v 0.83044 c 0.216591,-0.1833 0.432428,-0.36757 0.647505,-0.55243 v -0.27801 H 74.258 c 0.207813,-0.18008 0.412839,-0.36299 0.619083,-0.54467 h -0.945162 v -1.10588 z m 10.658781,0 v 1.10588 h -0.437183 v 0.54467 h 0.437183 v 2.04638 c 0,0.46624 0.102549,0.80466 0.306958,1.01596 0.204404,0.2113 0.502816,0.31729 0.895552,0.31729 0.11254,0 0.240009,-0.0103 0.382406,-0.031 0.144694,-0.0207 0.277732,-0.0474 0.399459,-0.0796 v -0.58188 h -0.03411 c -0.05053,0.0207 -0.13321,0.0469 -0.248047,0.0791 -0.114836,0.0299 -0.225079,0.045 -0.330729,0.045 -0.181442,0 -0.317121,-0.0207 -0.406693,-0.062 -0.08728,-0.0436 -0.156178,-0.11173 -0.206706,-0.2036 -0.05512,-0.0988 -0.08745,-0.20424 -0.09664,-0.31678 -0.0092,-0.11484 -0.01344,-0.27331 -0.01344,-0.47542 v -1.75338 h 1.336353 v -0.54467 h -1.336353 v -1.10588 z m 6.59753,0.99942 c -0.173956,0 -0.333781,0.0529 -0.492993,0.10801 0.01428,0.19152 0.0283,0.38306 0.04134,0.57464 0.0898,-0.0221 0.180105,-0.0662 0.269234,-0.0662 0.186035,0 0.328088,0.0254 0.426847,0.076 0.09876,0.0482 0.174552,0.12138 0.227377,0.22014 0.04823,0.0919 0.07924,0.21509 0.09302,0.36897 0.01608,0.15158 0.02429,0.31218 0.02429,0.48214 v 2.19108 h 0.647506 v -2.46342 c 0,-0.0689 -0.0021,-0.1378 -0.0067,-0.2067 -0.0046,-0.0712 -0.01016,-0.13321 -0.01705,-0.18604 0.181436,-0.1401 0.362716,-0.25459 0.544152,-0.34416 0.181442,-0.0919 0.362712,-0.13798 0.544153,-0.13798 0.186035,0 0.328605,0.0254 0.427364,0.076 0.09876,0.0505 0.174552,0.125 0.227377,0.22376 0.04823,0.0919 0.07924,0.21457 0.09302,0.36845 0.01608,0.15388 0.02429,0.31367 0.02429,0.47904 v 2.19108 h 0.647506 v -2.49752 c 0,-0.45932 -0.101229,-0.81683 -0.303341,-1.07177 -0.199815,-0.25724 -0.510683,-0.38551 -0.933276,-0.38551 -0.24575,0 -0.476577,0.049 -0.692464,0.1478 -0.215893,0.0965 -0.45493,0.25493 -0.716752,0.47542 -0.08957,-0.19522 -0.226056,-0.34761 -0.409795,-0.45785 -0.181436,-0.11025 -0.403253,-0.16537 -0.665075,-0.16537 z m 6.473506,0 c -0.544319,0 -0.977603,0.18259 -1.299145,0.54777 -0.319246,0.36289 -0.478524,0.85766 -0.478524,1.48467 0,0.627 0.159278,1.12178 0.478524,1.48466 0.321542,0.36288 0.754826,0.54467 1.299145,0.54467 0.539732,0 0.970374,-0.18179 1.291911,-0.54467 0.321542,-0.36288 0.482141,-0.85766 0.482141,-1.48466 0,-0.62701 -0.160599,-1.12178 -0.482141,-1.48467 -0.321537,-0.36518 -0.752179,-0.54777 -1.291911,-0.54777 z m 28.418417,0 c -0.54432,0 -0.97713,0.18259 -1.29862,0.54777 -0.31925,0.36289 -0.47905,0.85766 -0.47905,1.48467 0,0.627 0.1598,1.12178 0.47905,1.48466 0.32149,0.36288 0.7543,0.54467 1.29862,0.54467 0.53974,0 0.97037,-0.18179 1.29191,-0.54467 0.32155,-0.36288 0.48215,-0.85766 0.48215,-1.48466 0,-0.62701 -0.1606,-1.12178 -0.48215,-1.48467 -0.32154,-0.36518 -0.75217,-0.54777 -1.29191,-0.54777 z m 7.15151,0 c -0.22718,7e-5 -0.44194,0.047 -0.64389,0.14108 -0.19982,0.0942 -0.40044,0.22508 -0.60255,0.39274 v -0.42736 h -0.64802 v 3.84834 h 0.64802 v -2.87321 c 0.17685,-0.13551 0.35335,-0.24707 0.5302,-0.33435 0.17914,-0.0873 0.35749,-0.13074 0.53433,-0.13074 0.18604,0 0.32809,0.0254 0.42685,0.076 0.0988,0.0482 0.17455,0.12138 0.22738,0.22014 0.0482,0.0919 0.0792,0.21509 0.093,0.36897 0.0161,0.15158 0.0243,0.31218 0.0243,0.48214 v 2.19108 h 0.64751 v -2.46342 c 0,-0.0689 -0.002,-0.1378 -0.007,-0.2067 -0.005,-0.0712 -0.0102,-0.13321 -0.0171,-0.18604 0.18144,-0.1401 0.36271,-0.25459 0.54415,-0.34416 0.18144,-0.0919 0.36272,-0.13798 0.54416,-0.13798 0.18604,0 0.3286,0.0254 0.42736,0.076 0.0988,0.0505 0.17456,0.125 0.22738,0.22376 0.0482,0.0919 0.0792,0.21457 0.093,0.36845 0.0161,0.15388 0.0243,0.31367 0.0243,0.47904 v 2.19108 h 0.64751 v -2.49752 c 0,-0.45932 -0.10122,-0.81683 -0.30334,-1.07177 -0.19981,-0.25724 -0.51068,-0.38551 -0.93328,-0.38551 -0.24575,0 -0.47656,0.049 -0.69246,0.1478 -0.21589,0.0965 -0.45497,0.25493 -0.71675,0.47542 -0.0896,-0.19522 -0.22606,-0.34761 -0.4098,-0.45785 -0.18131,-0.11017 -0.40298,-0.16529 -0.66456,-0.16537 z m 10.64224,0 c -0.2113,0 -0.42357,0.0456 -0.63717,0.13746 -0.2136,0.0896 -0.39487,0.21624 -0.54415,0.37931 -0.16077,0.17455 -0.28824,0.38206 -0.38241,0.62321 -0.0919,0.23886 -0.13798,0.524 -0.13798,0.85473 0,0.60404 0.13436,1.07258 0.40308,1.4056 0.27102,0.33073 0.6362,0.4961 1.09554,0.4961 0.27561,0 0.50166,-0.0379 0.67851,-0.11369 0.17915,-0.0781 0.3665,-0.19522 0.56173,-0.3514 v 0.3514 c 0,0.15617 -0.0172,0.29742 -0.0517,0.42374 -0.0344,0.12632 -0.0917,0.23393 -0.17208,0.3235 -0.0804,0.0942 -0.19327,0.16783 -0.33797,0.22066 -0.14469,0.0528 -0.32728,0.0791 -0.54777,0.0791 -0.22967,0 -0.45917,-0.031 -0.68884,-0.093 -0.22968,-0.0597 -0.39717,-0.11007 -0.50282,-0.15141 h -0.0346 v 0.66146 c 0.18833,0.0528 0.37913,0.0928 0.57206,0.12041 0.19522,0.0299 0.39504,0.045 0.59945,0.045 0.61552,0 1.07108,-0.15293 1.36735,-0.45837 0.0599,-0.0618 0.0871,-0.16179 0.13488,-0.23772 -0.12888,-0.81382 -0.2351,-1.63155 -0.32039,-2.45153 -0.007,-0.0521 -0.0111,-0.10402 -0.0176,-0.15606 v 0.78858 c -0.15848,0.12173 -0.33286,0.21951 -0.52349,0.29301 -0.18833,0.0712 -0.377,0.10697 -0.56534,0.10697 -0.3514,0 -0.60289,-0.11156 -0.75447,-0.33435 -0.15159,-0.22278 -0.22738,-0.55006 -0.22738,-0.98185 0,-0.45475 0.10255,-0.80139 0.30696,-1.04025 0.20441,-0.23886 0.48426,-0.35863 0.84026,-0.35863 0.14699,0 0.29432,0.0172 0.44131,0.0517 0.11555,0.0249 0.24381,0.0757 0.37311,0.12815 -0.007,-0.18061 -0.0127,-0.36121 -0.0134,-0.54157 -0.12177,-0.0592 -0.24371,-0.11892 -0.35656,-0.15141 -0.14929,-0.0459 -0.33533,-0.0682 -0.55811,-0.0682 z m -61.660319,0.0124 v 5.2e-4 5.2e-4 c -0.24575,0 -0.468361,0.0323 -0.668177,0.0966 -0.197513,0.062 -0.360759,0.14682 -0.489375,0.25477 -0.133211,0.11024 -0.233119,0.23559 -0.299724,0.37569 -0.06431,0.1401 -0.09612,0.28956 -0.09612,0.44803 0,0.25264 0.06971,0.46627 0.209806,0.64079 0.142398,0.17225 0.382751,0.30317 0.72037,0.39274 0.121727,0.0322 0.256085,0.0618 0.403076,0.0894 0.149288,0.0276 0.269866,0.0515 0.361735,0.0724 0.248047,0.0551 0.415536,0.1219 0.502812,0.19998 0.08728,0.0781 0.130741,0.19258 0.130741,0.34417 0,0.19752 -0.08004,0.34221 -0.240812,0.43408 -0.160771,0.0919 -0.383899,0.13798 -0.668693,0.13798 -0.229673,0 -0.469509,-0.0448 -0.719853,-0.13436 -0.250338,-0.0919 -0.47772,-0.21457 -0.682129,-0.36845 h -0.03462 v 0.72657 c 0.160771,0.0804 0.359783,0.15537 0.596346,0.22427 0.23886,0.0666 0.500688,0.0992 0.785482,0.0992 0.502979,0 0.89917,-0.11237 1.188558,-0.33745 0.291685,-0.22508 0.437183,-0.51366 0.437183,-0.86506 0,-0.2802 -0.08136,-0.50493 -0.24443,-0.67489 -0.163068,-0.16766 -0.39521,-0.28612 -0.696082,-0.35502 -0.09876,-0.023 -0.222782,-0.0489 -0.37207,-0.0765 -0.146991,-0.0276 -0.280029,-0.0551 -0.399459,-0.0827 -0.215887,-0.0505 -0.372242,-0.116 -0.468705,-0.19638 -0.09876,-0.0804 -0.147794,-0.19963 -0.147794,-0.35811 0,-0.17914 0.08136,-0.3135 0.244429,-0.40308 0.163068,-0.0919 0.362884,-0.13797 0.599447,-0.13797 0.227371,0 0.459518,0.0427 0.696081,0.12764 0.236563,0.0827 0.437188,0.18471 0.602547,0.30644 h 0.03462 v -0.69247 c -0.156178,-0.0804 -0.352549,-0.14797 -0.589112,-0.20309 -0.234261,-0.0574 -0.466413,-0.0863 -0.696081,-0.0863 z m 57.302449,0.001 c -0.23197,0 -0.46756,0.0207 -0.70642,0.062 -0.23886,0.0413 -0.42145,0.0792 -0.54777,0.11369 v 0.65836 h 0.0346 c 0.22279,-0.085 0.43851,-0.14964 0.64751,-0.19327 0.209,-0.0459 0.39848,-0.0687 0.56844,-0.0687 0.1401,0 0.27446,0.009 0.40308,0.0274 0.12856,0.0184 0.23886,0.0541 0.33072,0.10698 0.0965,0.0551 0.17013,0.13091 0.22066,0.22737 0.0528,0.0965 0.0791,0.21836 0.0791,0.36535 v 0.0997 c -0.37667,0.0184 -0.72887,0.0459 -1.0573,0.0827 -0.32843,0.0368 -0.61013,0.10697 -0.8444,0.21032 -0.23191,0.10336 -0.41111,0.24541 -0.53743,0.42685 -0.12402,0.17915 -0.18604,0.41473 -0.18604,0.70642 0,0.35599 0.12058,0.64883 0.36174,0.8785 0.24116,0.22964 0.53531,0.34468 0.88212,0.34468 0.18833,0 0.35237,-0.0186 0.49247,-0.0553 0.1401,-0.0344 0.26413,-0.0779 0.37207,-0.13075 0.0919,-0.0413 0.18621,-0.0965 0.28267,-0.16536 0.0988,-0.0712 0.17668,-0.12632 0.2341,-0.16536 v 0.40979 h 0.6444 v -2.61121 c 0,-0.24805 -0.0379,-0.45607 -0.11369,-0.62373 -0.0758,-0.16767 -0.18603,-0.30415 -0.33072,-0.4098 -0.147,-0.10795 -0.32137,-0.18374 -0.52349,-0.22738 -0.19981,-0.0459 -0.4354,-0.0692 -0.70641,-0.0692 z m 13.45654,0 c -0.23197,0 -0.46756,0.0207 -0.70642,0.062 -0.23886,0.0413 -0.42145,0.0792 -0.54777,0.11369 v 0.65836 h 0.0346 c 0.22278,-0.085 0.4385,-0.14964 0.6475,-0.19327 0.209,-0.0459 0.39848,-0.0687 0.56844,-0.0687 0.1401,0 0.27446,0.009 0.40308,0.0274 0.0175,0.002 0.0282,0.0113 0.045,0.0145 -0.0994,0.0983 -0.19862,0.1935 -0.30231,0.3359 -0.13572,0.18198 -0.2424,0.37348 -0.3297,0.57154 -0.25166,0.04 -0.49436,0.0868 -0.68419,0.17053 -0.23197,0.10336 -0.41112,0.24541 -0.53744,0.42685 -0.12402,0.17915 -0.18603,0.41473 -0.18603,0.70642 0,0.35599 0.12058,0.64883 0.36173,0.8785 0.24116,0.22964 0.53531,0.34468 0.88212,0.34468 0.18833,0 0.35238,-0.0186 0.49248,-0.0553 0.1401,-0.0344 0.26412,-0.0779 0.37207,-0.13075 0.0919,-0.0413 0.1862,-0.0965 0.28267,-0.16536 0.0988,-0.0712 0.17667,-0.12632 0.23409,-0.16536 v 0.40979 h 0.64441 v -1.07797 c 0.0488,-0.0672 0.0964,-0.13048 0.14727,-0.20722 0.0836,-0.12674 0.15289,-0.22835 0.20774,-0.30489 0.14746,-0.20694 0.27441,-0.33558 0.38034,-0.38551 0.10593,-0.0499 0.22835,-0.0451 0.36794,0.0139 0.18189,0.077 0.28399,0.20733 0.30592,0.39119 0.0219,0.18387 -0.0228,0.40695 -0.13384,0.66921 -0.0895,0.21151 -0.22403,0.4152 -0.40411,0.61082 -0.18219,0.19469 -0.38426,0.35596 -0.60565,0.48421 l -0.0134,0.032 0.66972,0.28318 c 0.1367,-0.11671 0.28255,-0.27048 0.43822,-0.46147 0.15445,-0.194 0.2874,-0.42245 0.39842,-0.68471 0.19608,-0.46319 0.24691,-0.87153 0.15245,-1.22577 -0.0936,-0.35635 -0.3022,-0.60302 -0.6258,-0.74 -0.25803,-0.10923 -0.49719,-0.12235 -0.71727,-0.0382 -0.20702,0.0805 -0.39449,0.24774 -0.56792,0.47749 v -0.44752 c 0,-0.24805 -0.0379,-0.45607 -0.11369,-0.62373 -0.0758,-0.16767 -0.18604,-0.30415 -0.33073,-0.4098 -0.14699,-0.10795 -0.32137,-0.18374 -0.52348,-0.22738 -0.19982,-0.0459 -0.43541,-0.0692 -0.70642,-0.0692 z m -52.534262,0.093 v 3.84834 h 0.647502 v -2.87321 c 0.17685,-0.13551 0.36208,-0.24707 0.55501,-0.33435 0.19292,-0.0873 0.37764,-0.13074 0.55449,-0.13074 0.17225,0 0.31218,0.0241 0.42013,0.0724 0.10794,0.0459 0.19062,0.11696 0.24804,0.21342 0.0551,0.0873 0.093,0.20918 0.11369,0.36536 0.0207,0.15388 0.031,0.31924 0.031,0.49609 v 2.16834 c 0.21617,-0.0908 0.43209,-0.18201 0.64802,-0.27337 v -2.20141 c 0,-0.30867 -0.0648,-0.55234 -0.15865,-0.76636 -0.55944,-0.18949 -1.11644,-0.38604 -1.6769,-0.57258 -0.0352,0.0128 -0.0726,0.008 -0.10748,0.0227 -0.2159,0.0942 -0.42524,0.22508 -0.62736,0.39274 v -0.42736 z m 48.331412,0 v 3.71191 c 0.007,0.0455 0.0133,0.091 0.0202,0.13643 h 0.62735 v -2.73213 c 0.17226,-0.1401 0.3514,-0.25379 0.53744,-0.34107 0.18603,-0.0896 0.37896,-0.13436 0.57877,-0.13436 0.12402,0 0.23082,0.006 0.3204,0.0176 0.0919,0.009 0.1862,0.0251 0.28267,0.0481 h 0.0341 v -0.66507 c -0.10105,-0.0161 -0.17685,-0.0264 -0.22737,-0.031 -0.0505,-0.007 -0.13189,-0.0103 -0.24443,-0.0103 -0.20441,0 -0.40555,0.044 -0.60307,0.13125 -0.19522,0.085 -0.42128,0.23048 -0.67851,0.43719 v -0.56844 z m -51.107987,0.45165 c 0.346807,0 0.617649,0.12138 0.812871,0.36483 0.195217,0.24116 0.293005,0.61111 0.293005,1.1095 0,0.4869 -0.0991,0.85423 -0.296623,1.10225 -0.195217,0.24575 -0.464743,0.36897 -0.809253,0.36897 -0.349097,0 -0.621265,-0.12402 -0.816487,-0.37207 -0.195222,-0.25034 -0.293006,-0.61684 -0.293006,-1.09915 0,-0.49839 0.09646,-0.86834 0.289388,-1.1095 0.195222,-0.24345 0.468711,-0.36483 0.820105,-0.36483 z m 28.418417,0 c 0.34681,0 0.61765,0.12138 0.81287,0.36483 0.19523,0.24116 0.29301,0.61111 0.29301,1.1095 0,0.4869 -0.0986,0.85423 -0.29611,1.10225 -0.19522,0.24575 -0.46526,0.36897 -0.80977,0.36897 -0.3491,0 -0.62126,-0.12402 -0.81648,-0.37207 -0.19523,-0.25034 -0.29301,-0.61684 -0.29301,-1.09915 0,-0.49839 0.0965,-0.86834 0.28939,-1.1095 0.19522,-0.24345 0.4687,-0.36483 0.8201,-0.36483 z m -5.30407,0.0491 c -0.16577,0.0608 -0.33317,0.11663 -0.49867,0.17828 -0.0204,0.007 -0.0405,0.0154 -0.061,0.0227 0.002,0.002 0.005,0.003 0.007,0.005 0.16996,0.18604 0.25609,0.44919 0.25839,0.7891 h -2.20504 c 0.003,-0.0296 0.0168,-0.0533 0.0212,-0.0816 -0.21105,0.0791 -0.4234,0.15512 -0.63407,0.23513 -0.004,0.0429 -0.0104,0.0847 -0.0191,0.12454 0.21138,0.078 0.42274,0.15596 0.63407,0.23409 -5e-5,-0.006 -0.003,-0.01 -0.003,-0.016 h 2.83548 v -0.3514 c 0,-0.48085 -0.1262,-0.84786 -0.3359,-1.13946 z m 33.15664,0.38292 c 0.0411,0.0904 0.0698,0.19273 0.0698,0.32246 v 0.0997 c -0.17967,0.009 -0.33566,0.0263 -0.50436,0.0393 0.051,-0.0701 0.0789,-0.1471 0.14056,-0.21394 0.0957,-0.10549 0.1957,-0.16813 0.29404,-0.24753 z m -74.102456,0.13281 c -0.347862,0.32834 -0.698785,0.65323 -1.052649,0.97514 h 1.141532 v -0.3514 c 0,-0.23471 -0.03892,-0.43412 -0.08888,-0.62374 z m 25.013976,0.0274 0.71365,1.70532 c 0.1955,-0.084 0.3927,-0.16437 0.58808,-0.24856 l -0.48834,-1.17874 c -0.27082,-0.0936 -0.54236,-0.18503 -0.81339,-0.27802 z m 1.92805,0.65836 -0.27079,0.64854 c 0.0186,-0.008 0.0373,-0.0158 0.0558,-0.0238 0.25012,-0.11101 0.50198,-0.21748 0.75241,-0.32763 l 0.0424,-0.0992 c -0.19273,-0.0676 -0.38698,-0.13065 -0.57981,-0.19792 z m 33.77365,0.12712 v 1.07177 c -0.16077,0.12402 -0.33515,0.23082 -0.52348,0.32039 -0.18834,0.0873 -0.39636,0.13075 -0.62374,0.13075 -0.27331,0 -0.47657,-0.0551 -0.60978,-0.16537 -0.13321,-0.11254 -0.19947,-0.27922 -0.19947,-0.49971 0,-0.19522 0.0572,-0.34761 0.17208,-0.45785 0.11484,-0.11254 0.2651,-0.19522 0.45114,-0.24805 0.15617,-0.0436 0.36764,-0.0773 0.63407,-0.10025 0.26871,-0.023 0.50166,-0.0402 0.69918,-0.0517 z m 13.45654,0 v 0.69298 c -0.0657,0.0663 -0.1357,0.16022 -0.19585,0.19121 -0.11253,0.0596 -0.24164,0.0582 -0.38758,-0.003 -0.16497,-0.0698 -0.25703,-0.19732 -0.27595,-0.3824 -0.0151,-0.13313 0.0335,-0.2841 0.0765,-0.43357 0.0333,-0.003 0.0485,-0.0104 0.0837,-0.0134 0.26872,-0.023 0.50166,-0.0402 0.69918,-0.0517 z m -1.38079,0.17829 c -0.005,0.0356 -0.0258,0.0745 -0.0289,0.10955 -0.0199,0.20607 -0.005,0.38931 0.0439,0.54984 0.0496,0.16564 0.12588,0.30676 0.22893,0.42271 0.0793,0.0868 0.18208,0.14397 0.28577,0.2005 -0.0991,0.0197 -0.18817,0.062 -0.29611,0.062 -0.27331,0 -0.47657,-0.0551 -0.60978,-0.16537 -0.13321,-0.11254 -0.19947,-0.27922 -0.19947,-0.49971 0,-0.19522 0.0573,-0.34761 0.17208,-0.45785 0.10271,-0.10066 0.24393,-0.16881 0.4036,-0.22169 z m -72.812614,0.9002 c -0.112539,0.10105 -0.302025,0.20441 -0.56844,0.31006 -0.264124,0.10335 -0.527272,0.15503 -0.7891,0.15503 -0.197513,0 -0.378793,-0.0276 -0.544152,-0.0827 -0.139374,-0.0471 -0.254756,-0.12449 -0.362252,-0.21187 -0.162152,0.14082 -0.321145,0.27625 -0.474907,0.40721 0.349898,0.28955 0.803204,0.45217 1.388546,0.45217 0.250344,0 0.488859,-0.031 0.716236,-0.093 0.227371,-0.062 0.450503,-0.13861 0.668693,-0.23047 v -0.70642 z m 41.192314,5.2e-4 c -0.0221,0.0198 -0.0836,0.041 -0.11162,0.061 0.0483,0.0187 0.0974,0.0347 0.14573,0.0532 v -0.1142 z" />
    <path
       id="path19"
       style="fill:#01e07a;stroke:#8d6c13;stroke-width:0.499999"
       d="M 139.95088,17.019033 A 57.338001,11.214372 0 0 1 82.612875,28.233405 57.338001,11.214372 0 0 1 25.274874,17.019033 57.338001,11.214372 0 0 1 82.612875,5.804661 57.338001,11.214372 0 0 1 139.95088,17.019033 Z" />
    <text
       xml:space="preserve"
       style="font-size:7.05556px;white-space:pre;fill:#01e07a;fill-opacity:1;stroke:#8d6c13;stroke-width:0.499999;stroke-dasharray:none;stroke-dashoffset:0;stroke-opacity:1"
       id="text20"><textPath
         xlink:href="#path19"
         id="textPath21"><tspan
           id="tspan20"
           style="stroke-width:0.5">Izmontojat so teikumu ka mainit to ir kads no kad </tspan><tspan
           style="stroke-width:0.5"
           id="tspan21">ww he zhe ksj</tspan></textPath></text>
    <rect
       style="fill:url(#linearGradient174);fill-opacity:1;stroke:#8d6c13;stroke-width:0.499999;stroke-linejoin:bevel;stroke-dasharray:1, 0.499999;stroke-dashoffset:0;stroke-opacity:1"
       id="rect172"
       width="94.417786"
       height="58.242386"
       x="74.159561"
       y="214.15834" />
    <path
       sodipodi:type="spiral"
       style="fill:none;fill-rule:evenodd;stroke:#000000;stroke-width:0.264583"
       id="path185"
       sodipodi:cx="105.99391"
       sodipodi:cy="231.16078"
       sodipodi:expansion="1"
       sodipodi:revolution="4"
       sodipodi:radius="15.14622"
       sodipodi:argument="-17.979614"
       sodipodi:t0="0"
       d="m 105.99391,231.16078 c 0.36729,0.43531 -0.40557,0.70987 -0.72351,0.61046 -0.86157,-0.26938 -0.90741,-1.40607 -0.49741,-2.05747 0.73341,-1.16521 2.38182,-1.1693 3.39145,-0.38437 1.48166,1.15191 1.44021,3.37127 0.27131,4.72541 -1.55796,1.80486 -4.36564,1.71508 -6.05938,0.15827 -2.13139,-1.95908 -1.99198,-5.36238 -0.0452,-7.39334 2.35779,-2.45977 6.36046,-2.27009 8.72732,0.0678 2.78926,2.75515 2.54893,7.35936 -0.18088,10.06128 -3.15167,3.11948 -8.35881,2.82829 -11.395248,-0.29392 -3.450191,-3.54764 -3.107977,-9.35866 0.40697,-12.72922 3.943238,-3.78125 10.358798,-3.38792 14.063188,0.52002 4.11257,4.33856 3.66806,11.35914 -0.63307,15.39716 -4.73367,4.44409 -12.35965,3.94834 -16.73112,-0.74612 -4.775766,-5.12863 -4.228744,-13.36029 0.859162,-18.06509 5.523468,-5.10756 14.361038,-4.50923 19.399058,0.97221 5.43945,5.91821 4.78979,15.36187 -1.08526,20.73303"
       transform="translate(-8.682095,3.2557856)" />
  </g>
</svg>
